<svg width="2500" height="742" viewBox="0 0 2500 742" fill="none" xmlns="http://www.w3.org/2000/svg">
<path d="M2483.4 653.915C2483.4 663.239 2481.56 672.471 2477.99 681.084C2474.42 689.697 2469.19 697.522 2462.59 704.111C2455.99 710.7 2448.16 715.925 2439.54 719.486C2430.92 723.047 2421.68 724.874 2412.36 724.864H87.6198C68.7781 724.884 50.6999 717.421 37.3612 704.117C24.0224 690.813 16.5153 672.757 16.4907 653.92V88.1557C16.5153 69.3103 24.0194 51.2449 37.3555 37.9262C50.6916 24.6074 68.7695 17.124 87.6198 17.1191H2412.34C2421.67 17.1185 2430.91 18.9556 2439.53 22.5255C2448.15 26.0954 2455.99 31.3281 2462.58 37.9247C2469.18 44.5214 2474.41 52.3527 2477.98 60.9715C2481.55 69.5902 2483.39 78.8275 2483.38 88.1557L2483.4 653.915Z" fill="white"/>
<path d="M2412.36 741.368H87.6197C64.4079 741.363 42.146 732.152 25.7193 715.757C9.29262 699.361 0.0429276 677.121 0 653.915L0 88.1785C0.0331031 64.9612 9.27669 42.7052 25.7029 26.2929C42.129 9.8806 64.3964 0.6524 87.6197 0.632813L2412.34 0.632812C2435.56 0.662174 2457.83 9.89351 2474.25 26.3037C2490.67 42.7139 2499.92 64.9643 2499.96 88.1785V653.915C2500 702.155 2460.63 741.368 2412.36 741.368Z" fill="#A6A6A6"/>
<path d="M2483.4 653.915C2483.4 663.239 2481.56 672.471 2477.99 681.084C2474.42 689.697 2469.19 697.522 2462.59 704.111C2455.99 710.7 2448.16 715.925 2439.54 719.486C2430.92 723.047 2421.68 724.874 2412.36 724.864H87.6198C68.7781 724.884 50.6999 717.421 37.3612 704.117C24.0224 690.813 16.5153 672.757 16.4907 653.92V88.1557C16.5153 69.3103 24.0194 51.2449 37.3555 37.9262C50.6916 24.6074 68.7695 17.124 87.6198 17.1191H2412.34C2421.67 17.1185 2430.91 18.9556 2439.53 22.5255C2448.15 26.0954 2455.99 31.3281 2462.58 37.9247C2469.18 44.5214 2474.41 52.3527 2477.98 60.9715C2481.55 69.5902 2483.39 78.8275 2483.38 88.1557L2483.4 653.915Z" fill="white"/>
<path d="M558.223 367.101C557.686 307.398 607.12 278.352 609.38 277C581.385 236.195 537.991 230.621 522.741 230.176C486.297 226.338 450.946 251.977 432.376 251.977C413.441 251.977 384.854 230.542 354.044 231.176C314.391 231.787 277.294 254.741 256.952 290.375C214.966 363.046 246.281 469.832 286.502 528.568C306.627 557.355 330.136 589.456 360.914 588.327C391.025 587.104 402.27 569.155 438.603 569.155C474.603 569.155 485.168 588.322 516.552 587.604C548.866 587.104 569.209 558.706 588.63 529.679C611.88 496.725 621.222 464.239 621.593 462.568C620.852 462.309 558.852 438.638 558.223 367.101ZM498.931 191.533C515.126 171.288 526.204 143.742 523.13 115.793C499.691 116.83 470.381 131.997 453.501 151.802C438.566 169.251 425.228 197.853 428.673 224.746C455.001 226.709 482.033 211.468 498.931 191.533Z" fill="#111111"/>
<path d="M994.326 584.193H952.248L929.197 511.786H849.082L827.124 584.193H786.161L865.554 337.685H914.581L994.326 584.193ZM922.252 481.411L901.405 417.041C899.202 410.467 895.049 394.977 888.975 370.602H888.234C885.785 381.088 881.878 396.574 876.521 417.037L856.031 481.411H922.252ZM1198.1 493.133C1198.1 523.364 1189.89 547.258 1173.46 564.799C1158.75 580.415 1140.46 588.216 1118.65 588.216C1095.1 588.216 1078.17 579.822 1067.88 563.003V656.271H1028.38V464.87C1028.38 445.879 1027.88 426.411 1026.92 406.444H1061.66L1063.86 434.62H1064.6C1077.78 413.393 1097.77 402.777 1124.6 402.777C1145.57 402.777 1163.08 411.055 1177.09 427.638C1191.08 444.249 1198.1 466.073 1198.1 493.133ZM1157.86 494.578C1157.86 477.277 1153.97 463.013 1146.14 451.772C1137.61 440.083 1126.14 434.226 1111.76 434.226C1102.01 434.226 1093.15 437.49 1085.25 443.916C1077.32 450.397 1072.13 458.87 1069.7 469.351C1068.62 473.272 1068 477.308 1067.86 481.374V511.027C1067.86 523.943 1071.83 534.851 1079.76 543.776C1087.69 552.665 1097.99 557.133 1110.66 557.133C1125.54 557.133 1137.13 551.374 1145.41 539.943C1153.7 528.476 1157.86 513.36 1157.86 494.578ZM1402.6 493.133C1402.6 523.364 1394.39 547.258 1377.96 564.799C1363.23 580.415 1344.96 588.216 1323.13 588.216C1299.58 588.216 1282.65 579.822 1272.36 563.003V656.271H1232.86V464.87C1232.86 445.879 1232.36 426.411 1231.4 406.444H1266.14L1268.34 434.62H1269.08C1282.24 413.393 1302.23 402.777 1329.08 402.777C1350.03 402.777 1367.54 411.055 1381.59 427.638C1395.56 444.249 1402.6 466.073 1402.6 493.133ZM1362.34 494.578C1362.34 477.277 1358.43 463.013 1350.61 451.772C1342.06 440.083 1330.63 434.226 1316.25 434.226C1306.51 434.226 1297.65 437.49 1289.7 443.916C1281.77 450.397 1276.6 458.87 1274.18 469.351C1272.98 474.24 1272.33 478.221 1272.33 481.374V511.027C1272.33 523.943 1276.31 534.851 1284.2 543.776C1292.13 552.651 1302.43 557.133 1315.14 557.133C1330.04 557.133 1341.62 551.374 1349.88 539.943C1358.18 528.476 1362.34 513.36 1362.34 494.578ZM1631.24 515.05C1631.24 536.036 1623.9 553.096 1609.32 566.267C1593.28 580.637 1570.87 587.841 1542.16 587.841C1515.62 587.841 1494.35 582.734 1478.3 572.489L1487.44 539.573C1504.76 549.837 1523.79 554.943 1544.51 554.943C1559.41 554.943 1570.99 551.577 1579.25 544.887C1587.53 538.184 1591.72 529.216 1591.72 518.031C1591.72 508.008 1588.25 499.619 1581.45 492.781C1574.62 485.967 1563.31 479.61 1547.43 473.777C1504.26 457.68 1482.66 434.138 1482.66 403.166C1482.66 382.935 1490.29 366.38 1505.53 353.431C1520.76 340.5 1540.95 334.033 1566.08 334.033C1588.51 334.033 1607.21 337.945 1622.05 345.745L1612.14 377.935C1598.16 370.38 1582.4 366.602 1564.76 366.602C1550.82 366.602 1539.9 370.028 1532.07 376.842C1525.5 382.94 1522.16 390.365 1522.16 399.185C1522.16 408.907 1525.96 416.986 1533.52 423.319C1540.08 429.152 1552.05 435.509 1569.35 442.323C1590.59 450.884 1606.19 460.846 1616.17 472.295C1626.24 483.744 1631.24 498.027 1631.24 515.05ZM1762.18 436.083H1718.64V522.383C1718.64 544.332 1726.31 555.281 1741.69 555.281C1748.75 555.281 1754.6 554.688 1759.23 553.448L1760.32 583.438C1752.55 586.346 1742.3 587.808 1729.61 587.808C1714.01 587.808 1701.81 583.049 1693.01 573.526C1684.25 564.003 1679.84 548.059 1679.84 525.61V436.004H1653.9V406.37H1679.84V373.824L1718.64 362.116V406.375H1762.18V436.083ZM1958.24 493.86C1958.24 521.175 1950.43 543.61 1934.83 561.151C1918.5 579.211 1896.79 588.216 1869.72 588.216C1843.59 588.216 1822.82 579.563 1807.33 562.281C1791.84 544.966 1784.1 523.142 1784.1 496.818C1784.1 469.272 1792.1 446.712 1808.06 429.171C1824.05 411.611 1845.57 402.828 1872.64 402.828C1898.73 402.828 1919.69 411.5 1935.55 428.8C1950.7 445.583 1958.24 467.263 1958.24 493.86ZM1917.3 494.763C1917.3 478.481 1913.78 464.518 1906.72 452.828C1898.44 438.712 1886.58 431.657 1871.22 431.657C1855.39 431.657 1843.25 438.712 1835 452.828C1827.92 464.518 1824.39 478.721 1824.39 495.504C1824.39 511.804 1827.92 525.809 1835 537.462C1843.54 551.577 1855.45 558.633 1870.88 558.633C1885.99 558.633 1897.83 551.429 1906.38 537.105C1913.65 525.142 1917.3 511.087 1917.3 494.763ZM2086.7 441.175C2082.59 440.434 2078.42 440.068 2074.25 440.083C2060.36 440.083 2049.61 445.305 2042.05 455.828C2035.49 465.087 2032.19 476.8 2032.19 490.93V584.197H1992.69V462.421C1992.72 443.762 1992.34 425.104 1991.54 406.463H2025.95L2027.39 440.472H2028.48C2032.67 428.782 2039.24 419.356 2048.24 412.296C2056.48 406.13 2066.5 402.792 2076.79 402.777C2080.44 402.777 2083.73 403.037 2086.67 403.5L2086.7 441.175ZM2263.37 486.911C2263.47 492.914 2262.99 498.913 2261.93 504.823H2143.42C2143.86 522.383 2149.61 535.832 2160.61 545.091C2170.6 553.355 2183.52 557.503 2199.37 557.503C2216.92 557.503 2232.93 554.725 2247.33 549.114L2253.52 576.508C2236.69 583.846 2216.83 587.494 2193.91 587.494C2166.34 587.494 2144.7 579.378 2128.95 563.188C2113.23 546.985 2105.36 525.198 2105.36 497.911C2105.36 471.129 2112.68 448.809 2127.34 431.009C2142.68 412 2163.41 402.5 2189.5 402.5C2215.12 402.5 2234.52 412 2247.7 431.009C2258.13 446.064 2263.37 464.74 2263.37 486.911H2263.37ZM2225.7 476.666C2225.98 464.944 2223.39 454.846 2218.03 446.305C2211.2 435.305 2200.67 429.824 2186.57 429.824C2173.66 429.824 2163.13 435.175 2155.13 445.916C2148.55 454.458 2144.64 464.721 2143.44 476.629L2225.7 476.666ZM837.688 250.533C826.698 250.533 817.193 249.996 809.281 249.089V129.909C820.347 128.2 831.529 127.358 842.725 127.391C888.031 127.391 908.892 149.673 908.892 185.997C908.892 227.894 884.248 250.533 837.688 250.533ZM844.318 142.668C838.207 142.668 832.998 143.039 828.684 143.932V234.529C831.017 234.899 835.499 235.066 841.799 235.066C871.484 235.066 888.382 218.168 888.382 186.534C888.382 158.321 873.095 142.668 844.318 142.668ZM973.909 251.441C948.377 251.441 931.826 232.381 931.826 206.501C931.826 179.534 948.724 160.302 975.354 160.302C1000.52 160.302 1017.43 178.46 1017.43 205.075C1017.43 232.381 999.997 251.441 973.909 251.441ZM974.65 174.497C960.623 174.497 951.636 187.608 951.636 205.946C951.636 223.932 960.808 237.047 974.46 237.047C988.113 237.047 997.289 223.024 997.289 205.575C997.289 187.798 988.308 174.497 974.65 174.497ZM1163.03 162.103L1135.7 249.459H1117.89L1106.57 211.524C1103.76 202.244 1101.41 192.828 1099.55 183.311H1099.18C1097.75 192.83 1095.05 202.372 1092.17 211.524L1080.13 249.459H1062.14L1036.42 162.099H1056.38L1066.27 203.631C1068.61 213.524 1070.57 222.857 1072.2 231.677H1072.57C1074 224.32 1076.33 215.135 1079.76 203.816L1092.17 162.122H1108L1119.88 202.927C1122.63 212.411 1124.97 222.009 1126.89 231.695H1127.41C1128.68 222.714 1130.65 213.172 1133.34 202.927L1143.96 162.122L1163.03 162.103ZM1263.63 249.459H1244.22V199.297C1244.22 183.848 1238.29 176.103 1226.6 176.103C1215.09 176.103 1207.18 185.997 1207.18 197.501V249.459H1187.76V187.066C1187.76 179.344 1187.57 171.062 1187.04 162.08H1204.12L1205.03 175.562H1205.57C1210.79 166.228 1221.39 160.298 1233.27 160.298C1251.61 160.298 1263.65 174.325 1263.65 197.145L1263.63 249.459ZM1317.18 249.459H1297.75V122.016H1317.18V249.459ZM1387.98 251.441C1362.47 251.441 1345.9 232.381 1345.9 206.501C1345.9 179.534 1362.8 160.302 1389.41 160.302C1414.59 160.302 1431.48 178.46 1431.48 205.075C1431.5 232.381 1414.05 251.441 1387.98 251.441ZM1388.7 174.497C1374.68 174.497 1365.69 187.608 1365.69 205.946C1365.69 223.932 1374.88 237.047 1388.5 237.047C1402.17 237.047 1411.32 223.024 1411.32 205.575C1411.35 187.798 1402.37 174.497 1388.7 174.497ZM1508.04 249.459L1506.64 239.399H1506.12C1500.19 247.496 1491.54 251.436 1480.56 251.436C1464.91 251.436 1453.79 240.473 1453.79 225.728C1453.79 204.168 1472.49 193.015 1504.85 193.015V191.404C1504.85 179.904 1498.76 174.14 1486.72 174.14C1478.1 174.14 1470.54 176.307 1463.89 180.622L1459.94 167.863C1468.02 162.826 1478.1 160.302 1489.94 160.302C1512.77 160.302 1524.29 172.344 1524.29 196.446V228.621C1524.29 237.436 1524.68 244.269 1525.55 249.478L1508.04 249.459ZM1505.37 205.946C1483.81 205.946 1472.99 211.172 1472.99 223.561C1472.99 232.728 1478.56 237.214 1486.31 237.214C1496.18 237.214 1505.37 229.677 1505.37 219.432V205.946ZM1618.59 249.459L1617.68 235.431H1617.14C1611.56 246.033 1602.19 251.441 1589.09 251.441C1568.02 251.441 1552.42 232.918 1552.42 206.858C1552.42 179.534 1568.59 160.284 1590.68 160.284C1602.37 160.284 1610.65 164.233 1615.32 172.159H1615.71V122.02H1635.15V225.908C1635.15 234.357 1635.35 242.265 1635.87 249.454L1618.59 249.459ZM1615.71 198.057C1615.71 185.83 1607.61 175.399 1595.26 175.399C1580.86 175.399 1572.06 188.163 1572.06 206.131C1572.06 223.746 1581.19 235.806 1594.87 235.806C1607.08 235.806 1615.71 225.191 1615.71 212.612L1615.71 198.057ZM1758.38 251.436C1732.87 251.436 1716.32 232.381 1716.32 206.501C1716.32 179.534 1733.22 160.302 1759.82 160.302C1785.01 160.302 1801.91 178.46 1801.91 205.075C1801.92 232.381 1784.49 251.436 1758.38 251.436ZM1759.1 174.492C1745.09 174.492 1736.11 187.608 1736.11 205.946C1736.11 223.932 1745.28 237.047 1758.92 237.047C1772.59 237.047 1781.74 223.024 1781.74 205.575C1781.78 187.798 1772.8 174.492 1759.1 174.492ZM1906.33 249.459H1886.89V199.297C1886.89 183.848 1880.97 176.103 1869.27 176.103C1857.77 176.103 1849.88 185.997 1849.88 197.501V249.459H1830.44V187.066C1830.44 179.344 1830.25 171.062 1829.71 162.08H1846.8L1847.7 175.562H1848.24C1853.45 166.228 1864.06 160.284 1875.93 160.284C1894.27 160.284 1906.33 174.302 1906.33 197.126V249.459ZM2036.98 176.659H2015.61V219.08C2015.61 229.881 2019.35 235.269 2026.91 235.269C2030.34 235.269 2033.21 234.899 2035.53 234.362L2036.06 249.107C2032.3 250.552 2027.27 251.274 2021 251.274C2005.7 251.274 1996.55 242.825 1996.55 220.709V176.659H1983.8V162.103H1996.55V146.094L2015.61 140.33V162.08H2036.97L2036.98 176.659ZM2139.77 249.459H2120.37V199.668C2120.37 184.034 2114.46 176.122 2102.75 176.122C2092.69 176.122 2083.31 182.96 2083.31 196.797V249.459H2063.92V122.016H2083.31V174.492H2083.7C2089.81 164.974 2098.67 160.284 2109.98 160.284C2128.47 160.284 2139.77 174.659 2139.77 197.501V249.459ZM2245.09 210.446H2186.81C2187.18 226.987 2198.13 236.325 2214.34 236.325C2222.96 236.325 2230.89 234.881 2237.9 232.195L2240.91 245.681C2232.65 249.274 2222.92 251.07 2211.6 251.07C2184.28 251.07 2168.1 233.802 2168.1 207.043C2168.1 180.256 2184.66 160.117 2209.42 160.117C2231.74 160.117 2245.75 176.659 2245.75 201.645C2245.88 204.594 2245.65 207.548 2245.09 210.446ZM2227.28 196.612C2227.28 183.126 2220.47 173.603 2208.07 173.603C2196.91 173.603 2188.09 183.311 2186.83 196.612H2227.28Z" fill="#111111"/>
</svg>
