<svg width="18" height="13" viewBox="0 0 18 13" fill="none" xmlns="http://www.w3.org/2000/svg">
<g clip-path="url(#clip0_442_714)">
<path d="M19.138 3.88021C19.1459 3.76885 19.1512 3.65676 19.1512 3.54332C19.1512 1.048 17.2088 -0.974854 14.8127 -0.974854C14.1593 -0.974854 13.5401 -0.823991 12.9846 -0.554367C12.5947 -0.365111 12.135 -0.515755 11.9118 -0.898702C10.9869 -2.48522 9.31291 -3.54544 7.40044 -3.54544C4.48689 -3.54544 2.12502 -1.08583 2.12502 1.94825C2.12502 2.19954 2.14155 2.44673 2.17326 2.68893C2.22562 3.08879 2.00847 3.4731 1.6471 3.61885C0.0337868 4.26959 -1.11279 5.89557 -1.12491 7.80243C-1.1408 10.3043 0.879961 12.3511 3.28243 12.3511H16.9719C19.354 12.3511 21.3405 10.3797 21.3745 7.89924C21.3983 6.17036 20.4892 4.66095 19.138 3.88021Z" fill="#B2EBF2"/>
<path d="M19.138 3.88021C19.1459 3.76885 19.1512 3.65676 19.1512 3.54332C19.1512 1.048 17.2088 -0.974854 14.8127 -0.974854C14.1593 -0.974854 13.5401 -0.823991 12.9846 -0.554367C12.5947 -0.365111 12.135 -0.515755 11.9118 -0.898702C10.9869 -2.48522 9.31291 -3.54544 7.40044 -3.54544C4.48689 -3.54544 2.12502 -1.08583 2.12502 1.94825C2.12502 2.19954 2.14155 2.44673 2.17326 2.68893C2.22562 3.08879 2.00847 3.4731 1.6471 3.61885C0.0337868 4.26959 -1.11279 5.89557 -1.12491 7.80243C-1.1408 10.3043 0.879961 12.3511 3.28243 12.3511H16.9719C19.354 12.3511 21.3405 10.3797 21.3745 7.89924C21.3983 6.17036 20.4892 4.66095 19.138 3.88021Z" fill="#B2EBF2"/>
<mask id="mask0_442_714" style="mask-type:luminance" maskUnits="userSpaceOnUse" x="9" y="0" width="8" height="5">
<path d="M14.9671 1.56792C14.9426 1.56792 14.9183 1.56858 14.8941 1.56985C14.5706 0.923553 13.9218 0.481995 13.1735 0.481995C12.4258 0.481995 11.7774 0.9228 11.4537 1.56823C11.4499 1.56819 11.4462 1.56792 11.4425 1.56792C10.8974 1.56792 10.4289 1.90839 10.2216 2.39613C9.82027 2.55096 9.53418 2.95308 9.53418 3.42487C9.53418 4.03061 10.0057 4.52166 10.5874 4.52166H14.9671C15.7503 4.52166 16.3852 3.86044 16.3852 3.0448C16.3852 2.22915 15.7503 1.56792 14.9671 1.56792Z" fill="white"/>
</mask>
<g mask="url(#mask0_442_714)">
<path d="M16.3852 0.481995H9.53418V4.52166H16.3852V0.481995Z" fill="white"/>
</g>
<mask id="mask1_442_714" style="mask-type:luminance" maskUnits="userSpaceOnUse" x="5" y="7" width="8" height="5">
<path d="M7.17306 8.80001C7.19754 8.80001 7.22185 8.80066 7.24602 8.80193C7.56949 8.15564 8.21836 7.71408 8.96665 7.71408C9.71431 7.71408 10.3627 8.1549 10.6865 8.80031C10.6902 8.80028 10.6939 8.80003 10.6977 8.80003C11.2428 8.80003 11.7113 9.1405 11.9185 9.62823C12.3199 9.78304 12.606 10.1852 12.606 10.657C12.606 11.2627 12.1344 11.7537 11.5527 11.7537H7.17306C6.38982 11.7537 5.75488 11.0925 5.75488 10.2769C5.75488 9.46123 6.38982 8.80001 7.17306 8.80001Z" fill="white"/>
</mask>
<g mask="url(#mask1_442_714)">
<path d="M12.606 7.71408H5.75488V11.7537H12.606V7.71408Z" fill="white"/>
</g>
<path d="M5.13793 2.43062C2.97187 2.81907 4.36273 5.95144 2.56202 6.98969C2.50556 7.02224 7.31242 7.44202 7.31242 7.44202C7.31242 7.44202 7.63766 1.98233 5.13793 2.43062Z" fill="#3F3838"/>
<path d="M9.08388 8.21927L7.81348 8.91745L8.33643 10.0489L10.1539 10.3827C10.1219 10.3056 9.57918 9.21341 9.08388 8.21927Z" fill="#F6AD9F"/>
<path d="M2.28896 9.60175L4.74233 6.31989L4.15255 6.16403C3.68997 6.04178 3.19997 6.18911 2.87151 6.54922L0.780442 9.1108C0.703653 9.20488 0.651019 9.31129 0.621094 9.4222L2.28896 9.60175Z" fill="#F6AD9F"/>
<path d="M7.81601 9.32008L9.36066 8.46463L8.53078 6.78822C8.27286 6.26721 7.75702 5.93929 7.19347 5.93809L6.83398 5.93732L7.01482 8.20304L7.81601 9.32008Z" fill="white"/>
<path d="M3.55855 6.12481C3.55855 6.12481 4.84171 5.98673 5.37316 5.95162C5.90461 5.91649 6.9956 5.93766 6.9956 5.93766L7.67764 7.43019L7.64088 11.4838L3.21094 11.2193L3.55855 6.12481Z" fill="white"/>
<mask id="mask2_442_714" style="mask-type:luminance" maskUnits="userSpaceOnUse" x="3" y="5" width="5" height="7">
<path d="M3.55952 6.12528C3.55952 6.12528 4.8427 5.98722 5.37413 5.95211C5.9056 5.91698 6.99658 5.93815 6.99658 5.93815L7.67862 7.43067L7.64186 11.4843L3.21191 11.2198L3.55952 6.12528Z" fill="white"/>
</mask>
<g mask="url(#mask2_442_714)">
<path d="M4.64357 5.75761L4.69842 6.97795C4.721 7.48009 5.12417 7.87213 5.6075 7.86197C6.08051 7.85201 6.46379 7.45981 6.4809 6.96821L6.52762 5.62613L6.93384 5.68318C6.93384 5.68318 6.85868 7.04272 7.15507 7.97442C7.40699 8.76639 7.77748 9.14284 7.77748 9.14284L8.18205 11.986L2.73291 11.4785L3.17955 8.89389C3.17955 8.89389 3.81971 8.39881 4.09669 7.54021C4.31156 6.87417 4.24224 5.81851 4.24224 5.81851L4.64357 5.75761Z" fill="#0B6B39"/>
</g>
<path d="M5.80269 8.90527C5.86988 8.25941 5.48691 8.02804 5.15652 8.43229C5.0809 7.94985 4.94658 7.61276 4.74649 7.66523C4.46274 7.73961 4.40188 8.28178 4.43039 8.90388C4.40632 8.91938 4.382 8.93556 4.35645 8.95558C3.88024 9.32828 4.6229 11.1468 5.09311 11.1583C5.30842 11.1636 5.71942 9.70539 5.80269 8.90527Z" fill="#C5E1A5"/>
<path d="M5.09885 11.0989C5.08943 11.0989 5.08133 11.0914 5.08045 11.0815L4.80673 8.23392C4.80572 8.22339 4.8131 8.2139 4.82324 8.21286C4.83512 8.21091 4.84249 8.21956 4.84351 8.23017L5.11723 11.0777C5.11823 11.0882 5.11085 11.0977 5.10073 11.0988C5.09999 11.0989 5.09943 11.0989 5.09885 11.0989Z" fill="#09100F"/>
<path d="M4.97009 9.75379C4.96794 9.75379 4.96575 9.75341 4.96373 9.7526L4.41354 9.54284C4.40399 9.53924 4.39891 9.52818 4.40254 9.51817C4.40614 9.50808 4.4173 9.50289 4.42628 9.50673L4.96011 9.71022L5.38163 8.70205C5.38567 8.69241 5.39639 8.68781 5.40593 8.69203C5.41535 8.69631 5.41969 8.70761 5.4155 8.7174L4.98705 9.74221C4.98414 9.74944 4.97732 9.75379 4.97009 9.75379Z" fill="#09100F"/>
<path d="M6.32372 7.98567C6.8463 7.21544 7.47665 7.3455 7.46351 8.11511C7.99083 7.66522 8.44798 7.43218 8.61744 7.68885C8.85774 8.0528 8.42394 8.70377 7.81909 9.35262C7.831 9.39353 7.84254 9.43538 7.8519 9.48268C8.0266 10.3634 5.54068 11.6026 5.01809 11.1462C4.7788 10.9372 5.67634 8.93982 6.32372 7.98567Z" fill="#81C784"/>
<path d="M5.22558 10.8889C5.22065 10.8889 5.21573 10.8869 5.21211 10.8829C5.20501 10.8751 5.20544 10.8629 5.21284 10.8556L7.70992 8.4182C7.71744 8.41082 7.72918 8.41135 7.73612 8.4191C7.74321 8.42685 7.74277 8.43903 7.7354 8.44635L5.23831 10.8837C5.2347 10.8872 5.23005 10.8889 5.22558 10.8889Z" fill="#09100F"/>
<path d="M6.13572 10C6.12977 10 6.12413 9.99702 6.12065 9.99191C6.11689 9.98647 6.11616 9.97939 6.11862 9.97323L6.68257 8.59254C6.68662 8.58268 6.69806 8.57825 6.7069 8.58231C6.71629 8.58652 6.72064 8.59781 6.71674 8.60759L6.1645 9.95937L7.22119 9.88512C7.23204 9.88458 7.2403 9.8925 7.24102 9.90302C7.2416 9.91363 7.23392 9.92281 7.22381 9.92349L6.13701 9.99994C6.13657 10 6.13614 10 6.13572 10Z" fill="#09100F"/>
<path d="M5.48096 10.6382C5.47547 10.6382 5.47026 10.6357 5.46663 10.6312C5.46272 10.6263 5.46142 10.6197 5.46316 10.6136L5.7211 9.69727C5.72385 9.68702 5.73457 9.68152 5.74412 9.68416C5.75395 9.68717 5.75961 9.69787 5.75672 9.7081L5.50644 10.5971L5.86673 10.5619C5.876 10.5606 5.88584 10.5687 5.88685 10.5793C5.88784 10.5899 5.88034 10.5993 5.8702 10.6003L5.4827 10.6382C5.48212 10.6382 5.48154 10.6382 5.48096 10.6382Z" fill="#09100F"/>
<path d="M3.33755 11.1418C3.33663 11.21 3.28278 11.2645 3.21721 11.2636C3.15165 11.2626 3.09922 11.2066 3.10011 11.1385C3.10102 11.0703 3.15488 11.0158 3.22044 11.0167C3.28601 11.0176 3.33843 11.0737 3.33755 11.1418Z" fill="#282984"/>
<path d="M2.32484 11.1279C2.32394 11.1961 2.27007 11.2506 2.20449 11.2496C2.13894 11.2487 2.08653 11.1927 2.08741 11.1245C2.08831 11.0564 2.14218 11.0019 2.20776 11.0028C2.27331 11.0037 2.32572 11.0597 2.32484 11.1279Z" fill="#FEFEFB"/>
<path d="M5.37124 11.1704C5.37032 11.2385 5.31647 11.2931 5.2509 11.2921C5.18534 11.2912 5.13292 11.2352 5.1338 11.167C5.13472 11.0989 5.18857 11.0443 5.25413 11.0453C5.3197 11.0462 5.37212 11.1022 5.37124 11.1704Z" fill="#282984"/>
<path d="M4.35851 11.1563C4.35763 11.2244 4.30374 11.2789 4.23819 11.278C4.17263 11.2771 4.12022 11.2211 4.1211 11.1529C4.12199 11.0847 4.17588 11.0302 4.24143 11.0311C4.30699 11.0321 4.35941 11.0881 4.35851 11.1563Z" fill="#FEFEFB"/>
<path d="M7.40589 11.1995C7.40499 11.2677 7.35112 11.3222 7.28556 11.3213C7.22001 11.3203 7.16758 11.2643 7.16847 11.1961C7.16938 11.128 7.22324 11.0735 7.28879 11.0744C7.35437 11.0753 7.40679 11.1313 7.40589 11.1995Z" fill="#282984"/>
<path d="M6.39172 11.1853C6.39083 11.2535 6.33694 11.308 6.27139 11.3071C6.20583 11.3061 6.15342 11.2501 6.15431 11.182C6.15519 11.1138 6.20908 11.0593 6.27463 11.0602C6.34019 11.0611 6.39262 11.1172 6.39172 11.1853Z" fill="#FEFEFB"/>
<path d="M8.42541 11.2139C8.42452 11.2821 8.37064 11.3366 8.30508 11.3357C8.23952 11.3347 8.1871 11.2787 8.188 11.2106C8.18888 11.1424 8.24277 11.0879 8.30833 11.0888C8.37388 11.0897 8.42629 11.1458 8.42541 11.2139Z" fill="#FEFEFB"/>
<path d="M4.34632 12.0138C4.34542 12.082 4.29155 12.1365 4.22598 12.1355C4.16042 12.1346 4.10801 12.0786 4.1089 12.0104C4.1098 11.9422 4.16369 11.8877 4.22924 11.8887C4.2948 11.8896 4.3472 11.9456 4.34632 12.0138Z" fill="#282984"/>
<path d="M3.33314 11.9994C3.33224 12.0675 3.27838 12.122 3.21281 12.1211C3.14726 12.1202 3.09483 12.0642 3.09571 11.996C3.09663 11.9278 3.15049 11.8733 3.21606 11.8742C3.28161 11.8752 3.33404 11.9312 3.33314 11.9994Z" fill="#FEFEFB"/>
<path d="M6.3805 12.0429C6.3796 12.1111 6.32573 12.1656 6.26016 12.1646C6.1946 12.1637 6.14219 12.1077 6.14308 12.0395C6.14398 11.9713 6.19785 11.9168 6.2634 11.9178C6.32898 11.9187 6.38139 11.9747 6.3805 12.0429Z" fill="#282984"/>
<path d="M5.36732 12.0279C5.36642 12.0961 5.31255 12.1506 5.24699 12.1497C5.18144 12.1488 5.12901 12.0928 5.12989 12.0246C5.13079 11.9564 5.18467 11.9019 5.25022 11.9028C5.31578 11.9038 5.36822 11.9598 5.36732 12.0279Z" fill="#FEFEFB"/>
<path d="M8.4132 12.0712C8.41232 12.1394 8.35843 12.1939 8.29287 12.193C8.22732 12.192 8.17491 12.136 8.17579 12.0678C8.17668 11.9997 8.23056 11.9452 8.29612 11.9461C8.36167 11.947 8.41408 12.003 8.4132 12.0712Z" fill="#282984"/>
<path d="M7.40052 12.0571C7.39962 12.1252 7.34575 12.1797 7.28019 12.1788C7.21464 12.1779 7.16221 12.1219 7.1631 12.0537C7.164 11.9855 7.21787 11.931 7.28342 11.932C7.34898 11.9329 7.4014 11.9889 7.40052 12.0571Z" fill="#FEFEFB"/>
<path d="M2.54709 9.17355L2.41602 12.513L3.00209 12.5379L3.13319 9.19851L2.54709 9.17355Z" fill="#D3394F"/>
<path d="M7.96754 9.4043L7.83643 12.7437L8.42252 12.7687L8.55363 9.42925L7.96754 9.4043Z" fill="#6D4C41"/>
<path d="M2.20942 10.9605L2.14893 12.5015L8.69054 12.7799L8.75103 11.239L2.20942 10.9605Z" fill="#A1887F"/>
<path d="M2.28022 9.16187L2.21973 10.7028L8.76136 10.9813L8.82185 9.44034L2.28022 9.16187Z" fill="#A1887F"/>
<path d="M2.81954 9.73386C2.74307 9.73061 2.67854 9.79242 2.67541 9.87193C2.67229 9.95145 2.73174 10.0186 2.80821 10.0218C2.88468 10.0251 2.9492 9.96325 2.95234 9.88371C2.95547 9.80422 2.89602 9.7371 2.81954 9.73386Z" fill="#6D4C41"/>
<path d="M2.74071 11.7354C2.73852 11.7353 2.73635 11.7353 2.73433 11.7353C2.65051 11.7353 2.58075 11.8043 2.57728 11.892C2.5738 11.982 2.64139 12.0582 2.72795 12.0619C2.73013 12.062 2.73229 12.062 2.73447 12.062C2.77399 12.062 2.81147 12.0468 2.84072 12.0188C2.87169 11.9892 2.8895 11.9489 2.89123 11.9053C2.89297 11.8617 2.87821 11.8201 2.84983 11.7879C2.82132 11.7559 2.78267 11.7372 2.74071 11.7354Z" fill="#6D4C41"/>
<path d="M8.27074 12.0184C8.24222 11.9863 8.20358 11.9677 8.1616 11.9659C8.07446 11.9621 8.00166 12.0323 7.99819 12.1223C7.99643 12.166 8.0112 12.2077 8.03959 12.2398C8.06808 12.2719 8.10675 12.2905 8.14873 12.2923C8.1509 12.2924 8.15307 12.2925 8.15524 12.2925C8.1949 12.2925 8.23238 12.2773 8.26163 12.2492C8.2926 12.2196 8.31041 12.1794 8.31214 12.1357C8.31388 12.0922 8.29911 12.0505 8.27074 12.0184Z" fill="#6D4C41"/>
<path d="M6.18611 9.90029C6.21579 9.89602 6.24448 9.88288 6.26839 9.86049C6.33197 9.80103 6.33724 9.69913 6.27995 9.63294C6.0328 9.34722 5.7551 9.08919 5.45438 8.86616L5.4339 8.8509C5.36429 8.7994 5.26761 8.81595 5.21771 8.88859C5.16808 8.96109 5.18434 9.06168 5.25396 9.11339L5.27442 9.12855C5.55673 9.33793 5.81745 9.58019 6.04957 9.84847C6.08531 9.88981 6.13693 9.90737 6.18611 9.90029Z" fill="#F6AD9F"/>
<path d="M10.1318 10.3284L8.69029 9.91101L7.49581 9.81773C7.24285 9.76486 6.79103 9.71472 6.54431 9.66565C5.81492 9.52063 4.88916 9.17007 4.87884 9.16511C4.80137 9.12752 4.70906 9.16212 4.67282 9.24267C4.65247 9.28779 4.65464 9.33736 4.67351 9.37921C4.61323 9.37676 4.55447 9.41136 4.52721 9.47194C4.4983 9.53604 4.51408 9.60933 4.56054 9.65584C4.48674 9.62913 4.40375 9.66342 4.36966 9.73896C4.33333 9.81953 4.36677 9.91539 4.44425 9.95317C4.45166 9.9568 4.48936 9.97482 4.54724 10.0009C4.52081 10.0179 4.49888 10.043 4.48586 10.075C4.45253 10.157 4.48948 10.2515 4.56831 10.2861C4.60831 10.3037 5.45333 10.6708 6.21145 10.7209L6.21134 10.7216L9.49862 11.2734C9.75607 11.3166 10.0117 11.1861 10.1364 10.948C10.2377 10.7544 10.2359 10.5203 10.1318 10.3284Z" fill="#F6AD9F"/>
<path d="M5.26653 9.59133C5.26465 9.59133 5.26291 9.59103 5.26103 9.59043L4.66682 9.39732C4.65699 9.39416 4.65162 9.38341 4.65466 9.37325C4.65771 9.36301 4.66784 9.35759 4.67783 9.3606L5.27203 9.55371C5.28188 9.55687 5.28721 9.56763 5.28418 9.57777C5.28172 9.58606 5.27448 9.59133 5.26653 9.59133Z" fill="#FB928C"/>
<path d="M5.12629 9.85354C5.12455 9.85354 5.12266 9.85331 5.12094 9.85271L4.55424 9.67413C4.54439 9.67105 4.53889 9.66029 4.54179 9.65013C4.54482 9.63997 4.55553 9.63446 4.56494 9.63726L5.13166 9.81584C5.14149 9.81892 5.14699 9.82968 5.14395 9.83984C5.14162 9.84819 5.13424 9.85354 5.12629 9.85354Z" fill="#FB928C"/>
<path d="M5.05632 10.1554C5.05487 10.1554 5.05328 10.1552 5.05169 10.1548L4.54029 10.019C4.53044 10.0164 4.52437 10.0059 4.52697 9.99563C4.52943 9.98532 4.53856 9.97916 4.54955 9.98172L5.06094 10.1175C5.0708 10.1201 5.07687 10.1306 5.07427 10.1409C5.0721 10.1496 5.06458 10.1554 5.05632 10.1554Z" fill="#FB928C"/>
<path d="M5.56451 12.0849L4.72426 11.6277C4.67762 11.6022 4.62509 11.6026 4.58023 11.6228L2.26049 9.59808L0.62609 9.42267C0.583195 9.71931 0.696001 10.0316 0.949608 10.2199L4.07965 12.5451L4.73699 13.0057C4.80006 13.0401 4.87458 13.0285 4.92514 12.9825C4.9403 12.9686 4.95325 12.9518 4.96312 12.9322C4.98377 12.8912 4.98677 12.8457 4.97567 12.8044C5.0359 12.831 5.10385 12.8198 5.15109 12.7767C5.16634 12.7629 5.17928 12.746 5.18911 12.7264C5.2084 12.6881 5.21194 12.646 5.20337 12.607C5.2616 12.6292 5.3258 12.6176 5.37099 12.5765C5.3862 12.5627 5.3991 12.5459 5.4091 12.5262C5.42975 12.485 5.43272 12.4394 5.42146 12.398C5.48179 12.4248 5.54997 12.4135 5.59726 12.3704C5.61244 12.3566 5.62537 12.3397 5.63535 12.32C5.67825 12.2348 5.64657 12.1294 5.56451 12.0849Z" fill="#F6AD9F"/>
<path d="M5.4224 12.4177C5.41936 12.4177 5.41617 12.417 5.41327 12.4152L4.73498 12.0166C4.72601 12.0114 4.72297 11.9996 4.72802 11.9904C4.73281 11.9813 4.74409 11.9779 4.75322 11.9831L5.43151 12.3817C5.4405 12.3869 5.44354 12.3986 5.43846 12.4079C5.43513 12.4143 5.42889 12.4177 5.4224 12.4177Z" fill="#FB928C"/>
<path d="M5.20341 12.6265C5.20009 12.6265 5.19676 12.6256 5.19387 12.6237L4.61833 12.2606C4.60951 12.2551 4.60674 12.2432 4.61211 12.2341C4.61732 12.225 4.62904 12.2221 4.63744 12.2277L5.21298 12.5908C5.22178 12.5963 5.22455 12.6081 5.2192 12.6172C5.21571 12.6232 5.20963 12.6265 5.20341 12.6265Z" fill="#FB928C"/>
<path d="M4.97517 12.824C4.9717 12.824 4.96821 12.8229 4.96517 12.821L4.50126 12.5123C4.49256 12.5066 4.4901 12.4947 4.4956 12.4856C4.50126 12.4766 4.51297 12.4745 4.52123 12.4798L4.98515 12.7885C4.99385 12.7942 4.9963 12.8061 4.99081 12.8151C4.98718 12.8208 4.98125 12.824 4.97517 12.824Z" fill="#FB928C"/>
<path d="M5.19006 11.4123C4.96216 11.1539 4.15771 11.4807 4.15771 11.4807C4.15771 11.4807 4.59039 11.7673 4.73492 11.7547C4.96784 11.7344 5.07845 11.68 5.19389 11.7585C5.34629 11.8621 5.52633 11.9517 5.61456 11.7857C5.65389 11.7118 5.245 11.4745 5.19006 11.4123Z" fill="#F6AD9F"/>
<path d="M4.06341 6.07208L3.83887 6.08577C3.37399 6.11418 2.93 6.29637 2.57172 6.60571L1.55322 7.48514L2.96979 8.92843L3.66003 8.13188L4.06341 6.07208Z" fill="white"/>
<path d="M5.90419 4.5585L5.07113 4.52603L4.77667 6.24465C4.75852 6.43086 5.05621 6.61474 5.44159 6.65536C5.82697 6.69598 6.15409 6.57796 6.17226 6.39173C6.17487 6.3651 6.17032 6.33859 6.16066 6.31246L5.90419 4.5585Z" fill="#F6AD9F"/>
<mask id="mask3_442_714" style="mask-type:luminance" maskUnits="userSpaceOnUse" x="4" y="4" width="3" height="3">
<path d="M5.90079 4.5585L5.06771 4.52603L4.77325 6.24465C4.7551 6.43086 5.05279 6.61474 5.43819 6.65536C5.82357 6.69598 6.15067 6.57796 6.16885 6.39173C6.17145 6.3651 6.1669 6.33859 6.15726 6.31246L5.90079 4.5585Z" fill="white"/>
</mask>
<g mask="url(#mask3_442_714)">
<path d="M6.14486 5.35302C6.14486 5.35302 5.48024 5.3441 5.18257 5.06184C4.88489 4.77958 6.28801 4.54706 6.28801 4.54706L6.14486 5.35302Z" fill="#FB928C"/>
</g>
<path d="M6.17991 3.5964C6.17414 3.18192 5.84632 2.85079 5.44771 2.8568C5.04911 2.86279 4.73064 3.20365 4.73641 3.61813L4.73911 3.81193C4.71478 3.80984 4.68971 3.81142 4.66462 3.81717C4.52971 3.84809 4.44446 3.98685 4.47417 4.12712C4.50199 4.25836 4.62065 4.34439 4.74633 4.32958L4.74706 4.38338C4.75283 4.79785 5.08066 5.12899 5.47926 5.12299C5.87788 5.11698 6.19634 4.77612 6.19057 4.36166L6.17991 3.5964Z" fill="#F6AD9F"/>
<path d="M4.65479 3.49902L6.26148 3.54322C6.26148 3.54322 6.33477 2.40408 5.52817 2.47418C4.80345 2.53714 4.77371 2.86469 4.65479 3.49902Z" fill="#3F3838"/>
<path d="M16.6326 2.35042C17.1978 2.4185 17.4071 3.53359 17.3532 4.12341C17.2444 5.31838 16.1191 6.98458 16.1191 6.98458L15.5156 6.70316C15.5156 6.70316 15.9205 4.91617 15.8309 3.27912C15.7964 2.64905 16.2467 2.30391 16.6326 2.35042Z" fill="#6F3A33"/>
<path d="M15.8714 2.72093C15.8982 2.59358 16.0737 2.49477 16.1957 2.52394C16.416 2.57663 16.6034 2.92918 16.547 3.15715C16.5166 3.27964 16.3677 3.31421 16.2497 3.2838C16.0363 3.22875 15.8243 2.9446 15.8714 2.72093Z" fill="#FABB61"/>
<path d="M15.5359 5.17642C15.5359 5.17642 16.0366 4.99006 16.2555 4.65235C16.5982 4.12412 16.6607 3.37263 16.332 2.8348C16.0754 2.41509 15.482 2.20776 15.0071 2.26444C14.6433 2.30774 14.4657 2.64913 14.4657 2.64913C14.4657 2.64913 13.907 2.67087 13.7332 3.06041C13.3664 3.88217 14.0581 4.38045 14.0581 4.38045L15.5359 5.17642Z" fill="#8B4840"/>
<path d="M15.5158 5.76675C15.9552 5.97994 16.5384 6.26808 16.8577 6.50612L16.6956 9.91139L12.2275 9.07649C12.2275 9.07649 12.7061 6.85252 13.9661 5.96204C14.1006 5.86697 14.4886 5.81194 14.4886 5.81194L15.5158 5.76675Z" fill="white"/>
<path d="M17.258 12.3512C17.0606 11.4437 16.9926 10.0233 16.8665 8.83266C16.8665 8.83266 16.0036 8.69507 15.8577 8.05405C15.7405 7.53973 16.46 6.25916 16.4611 6.26229L16.0828 6.04652C16.0828 6.04652 15.6474 6.71476 15.3982 7.80076C15.2772 8.32812 13.7752 8.20218 13.7677 7.66004C13.7519 6.52065 14.4884 5.81201 14.4884 5.81201L14.02 5.92458C14.02 5.92458 13.4013 6.38346 13.0651 8.93584C12.9255 9.99526 13.2823 11.2073 13.4013 12.3512H17.258Z" fill="#C75E42"/>
<path d="M11.5282 8.04364V7.45523L10.8643 7.81922L11.5282 8.04364Z" fill="#D89030"/>
<path d="M15.251 8.04364L15.8969 7.81922L15.251 7.45523V8.04364Z" fill="#D89030"/>
<path d="M11.5278 9.67169C11.5278 9.78781 11.6182 9.88195 11.7297 9.88195H15.0527C15.1643 9.88195 15.2546 9.78781 15.2546 9.67169V7.45523H11.5278V9.67169Z" fill="#EAA23B"/>
<path d="M11.1485 6.91682C10.8695 6.82 10.7434 6.48805 10.6238 6.52262C10.5043 6.5572 10.5574 6.6886 10.5574 6.6886C10.5574 6.6886 10.1058 6.46038 10.0129 6.6886C9.91989 6.91682 10.0394 7.04822 10.3781 7.15886C10.7168 7.26952 10.6305 7.59456 11.009 7.54614C11.3875 7.49774 11.3875 7.26259 11.3875 7.26259C11.3875 7.26259 11.4274 7.01364 11.1485 6.91682Z" fill="#094F37"/>
<path d="M11.327 6.31529C11.0785 6.33424 11.1176 6.71605 11.1264 6.78257C11.1274 6.78878 11.1278 6.79248 11.1278 6.79248C11.1278 6.79248 11.1272 6.78893 11.1264 6.78257C11.1191 6.73775 11.0802 6.56117 10.9285 6.68875C10.7559 6.83397 11.2141 7.35956 11.2141 7.35956C11.327 7.51171 11.493 7.29732 11.493 7.29732C11.493 7.29732 11.4532 6.99995 11.4797 6.79248C11.5063 6.585 11.5993 6.29455 11.327 6.31529Z" fill="#166843"/>
<path d="M11.1265 6.78241C11.1272 6.78821 11.1277 6.79143 11.1277 6.79143C11.1277 6.79143 11.1274 6.78807 11.1265 6.78241Z" fill="#166843"/>
<path d="M11.0955 7.38035C11.0955 7.38035 10.4778 6.99999 10.2919 7.4011C10.2919 7.4011 10.2321 7.69156 10.79 7.57399C10.79 7.57399 10.604 7.6639 10.7302 7.68465C10.8564 7.70539 11.0423 7.57399 11.1087 7.59474C11.1751 7.61548 11.2748 7.48408 11.0955 7.38035Z" fill="#799922"/>
<path d="M11.1046 7.40291V7.40362C11.0917 7.41988 11.0794 7.43685 11.0672 7.45452C10.7529 7.92746 11.3455 8.49017 11.6049 8.70368C11.704 8.78497 11.8255 8.83588 11.9517 8.83233C12.1208 8.8281 12.2409 8.73548 12.2987 8.57078C12.3509 8.42231 12.3516 8.21518 12.2891 7.9614C12.1357 7.33363 11.4732 6.94198 11.1046 7.40291Z" fill="#CE293D"/>
<path d="M11.1959 7.99851C11.0543 7.77721 11.0672 7.56211 11.1046 7.40375C11.0917 7.42002 11.0794 7.43699 11.0672 7.45466C10.7529 7.9276 11.3455 8.49031 11.6049 8.70382C11.704 8.78511 11.8255 8.83601 11.9517 8.83247C12.1208 8.82824 12.2409 8.73562 12.2986 8.57092C11.9042 8.67341 11.4985 8.4712 11.1959 7.99851Z" fill="#BF213C"/>
<path d="M14.5045 6.25486C14.4327 6.14953 14.332 6.2462 14.332 6.2462C14.332 6.2462 14.3848 5.72636 14.1471 5.71282C13.9094 5.69926 13.8313 5.86099 13.8464 6.2303C13.8615 6.59962 13.5386 6.62546 13.7109 6.97977C13.8832 7.3341 14.0956 7.25422 14.0956 7.25422C14.0956 7.25422 14.334 7.20869 14.3267 6.90262C14.3194 6.59654 14.5763 6.36019 14.5045 6.25486Z" fill="#166843"/>
<path d="M14.4413 6.83588C14.4363 6.83845 14.4336 6.83998 14.4336 6.83998C14.4336 6.83998 14.4365 6.83856 14.4413 6.83588Z" fill="#094F37"/>
<path d="M14.4428 6.83577C14.4375 6.83887 14.4343 6.84051 14.4343 6.84051C14.4343 6.84051 14.4373 6.83875 14.4428 6.83577C14.4808 6.81346 14.627 6.71535 14.4603 6.61015C14.2705 6.49035 13.9514 7.1177 13.9514 7.1177C13.8524 7.27994 14.1024 7.36973 14.1024 7.36973C14.1024 7.36973 14.3574 7.2297 14.5538 7.18525C14.7502 7.14079 15.0442 7.1332 14.9329 6.87356C14.8314 6.63661 14.4999 6.80461 14.4428 6.83577Z" fill="#094F37"/>
<path d="M13.5989 6.22772C13.5989 6.22772 13.3163 6.26784 13.6119 6.77429C13.6119 6.77429 13.4676 6.62269 13.4917 6.75333C13.5158 6.88396 13.6976 7.02145 13.7015 7.09355C13.7053 7.16563 13.8578 7.21857 13.8906 7.00773C13.8906 7.00773 14.0243 6.2736 13.5989 6.22772Z" fill="#094F37"/>
<path d="M13.8746 7.0253L13.874 7.02553C13.8549 7.01844 13.8355 7.01221 13.8154 7.00625C13.2815 6.85905 12.9745 7.63066 12.8698 7.95717C12.83 8.08186 12.8253 8.21817 12.8714 8.34063C12.9326 8.50475 13.0571 8.591 13.2255 8.59156C13.3773 8.59233 13.5646 8.52264 13.7726 8.37526C14.2875 8.01176 14.4161 7.22978 13.8746 7.0253Z" fill="#A5193B"/>
<path d="M12.8698 7.95717C12.83 8.08186 12.8253 8.21817 12.8714 8.34063C12.9326 8.50475 13.0571 8.591 13.2255 8.59156C12.9989 8.24006 13.0437 7.77402 13.3679 7.31707C13.5196 7.10312 13.7183 7.04275 13.874 7.02555C13.8549 7.01844 13.8355 7.01221 13.8154 7.00625C13.2815 6.85905 12.9745 7.63066 12.8698 7.95717Z" fill="#96153A"/>
<path d="M13.3766 6.51341C13.3047 6.40807 13.2041 6.50474 13.2041 6.50474C13.2041 6.50474 13.2568 5.9849 13.0191 5.97136C12.7814 5.95782 12.7034 6.11953 12.7185 6.48886C12.7336 6.85816 12.4107 6.884 12.583 7.23833C12.7553 7.59264 12.9676 7.51278 12.9676 7.51278C12.9676 7.51278 13.206 7.46724 13.1987 7.16116C13.1914 6.85508 13.4484 6.61875 13.3766 6.51341Z" fill="#799922"/>
<path d="M13.3119 7.09437C13.3066 7.09747 13.3034 7.09913 13.3034 7.09913C13.3034 7.09913 13.3065 7.09737 13.3119 7.09437C13.35 7.07207 13.4962 6.97397 13.3294 6.86875C13.1396 6.74897 12.8206 7.3763 12.8206 7.3763C12.7215 7.53856 12.9715 7.62835 12.9715 7.62835C12.9715 7.62835 13.2266 7.48832 13.423 7.44387C13.6194 7.39941 13.9133 7.39182 13.8021 7.13217C13.7006 6.89521 13.369 7.06323 13.3119 7.09437Z" fill="#094F37"/>
<path d="M13.3109 7.09445C13.3059 7.09704 13.3032 7.09857 13.3032 7.09857C13.3032 7.09857 13.3061 7.09713 13.3109 7.09445Z" fill="#094F37"/>
<path d="M12.4705 6.48654C12.4705 6.48654 12.1878 6.52666 12.4835 7.03311C12.4835 7.03311 12.3391 6.88152 12.3633 7.01215C12.3874 7.14278 12.5692 7.28029 12.573 7.35237C12.5769 7.42447 12.7294 7.47741 12.7621 7.26655C12.7621 7.26655 12.8959 6.53243 12.4705 6.48654Z" fill="#166843"/>
<path d="M12.7443 7.28412L12.7436 7.28436C12.7246 7.27724 12.7051 7.27103 12.685 7.26507C12.1511 7.11786 11.8441 7.88948 11.7394 8.21599C11.6996 8.34068 11.6949 8.47698 11.741 8.59944C11.8023 8.76358 11.9267 8.8498 12.0951 8.85037C12.2469 8.85116 12.4342 8.78147 12.6422 8.63407C13.1571 8.27057 13.2858 7.48859 12.7443 7.28412Z" fill="#CE293D"/>
<path d="M11.7394 8.21599C11.6996 8.34068 11.6949 8.47698 11.741 8.59944C11.8023 8.76358 11.9267 8.8498 12.0951 8.85037C11.8685 8.49887 11.9134 8.03284 12.2375 7.57587C12.3893 7.36195 12.5879 7.30158 12.7436 7.28436C12.7246 7.27724 12.7051 7.27103 12.685 7.26508C12.1511 7.11786 11.8441 7.88946 11.7394 8.21599Z" fill="#B51C3D"/>
<path d="M15.5619 6.9229C15.5619 6.9229 15.781 6.45257 15.5617 6.35581C15.3425 6.25906 15.2164 6.3836 15.1103 6.73633C15.0041 7.08906 14.692 6.99926 14.7386 7.39344C14.7852 7.78762 15.011 7.78755 15.011 7.78755C15.011 7.78755 15.2501 7.82896 15.343 7.53846C15.4359 7.24799 15.7546 7.11647 15.7213 6.992C15.6881 6.86753 15.5619 6.9229 15.5619 6.9229Z" fill="#166843"/>
<path d="M15.4706 7.5165C15.4647 7.51754 15.4611 7.51796 15.4611 7.51796C15.4611 7.51796 15.4645 7.51737 15.4706 7.5165C15.5137 7.50897 15.6832 7.46839 15.5608 7.31046C15.4213 7.13069 14.9166 7.60805 14.9166 7.60805C14.7706 7.72566 14.9764 7.89848 14.9764 7.89848C14.9764 7.89848 15.262 7.8569 15.4613 7.88449C15.6606 7.91209 15.9394 8.00882 15.9195 7.72527C15.9012 7.46648 15.5346 7.5074 15.4706 7.5165Z" fill="#799922"/>
<path d="M15.4706 7.51688C15.4646 7.51761 15.4614 7.51811 15.4614 7.51811C15.4614 7.51811 15.4648 7.51776 15.4706 7.51688Z" fill="#799922"/>
<path d="M14.8773 6.64662C14.8773 6.64662 14.5984 6.58446 14.7114 7.16535C14.7114 7.16535 14.6251 6.97174 14.6052 7.10314C14.5853 7.23453 14.7115 7.42814 14.6916 7.4973C14.6717 7.56647 14.7979 7.67015 14.8975 7.48341C14.8975 7.48341 15.2625 6.84012 14.8773 6.64662Z" fill="#799922"/>
<path d="M14.8755 7.49441H14.8748C14.8592 7.48098 14.8429 7.46825 14.8259 7.45553C14.3716 7.12838 13.8315 7.74572 13.6265 8.01583C13.5485 8.11908 13.4997 8.24564 13.5031 8.37712C13.5072 8.55314 13.5962 8.67825 13.7544 8.73828C13.897 8.79267 14.0959 8.79331 14.3396 8.72819C14.9423 8.56822 15.3181 7.87812 14.8755 7.49441Z" fill="#CE293D"/>
<path d="M13.6265 8.01583C13.5485 8.11908 13.4997 8.24564 13.5031 8.37712C13.5072 8.55314 13.5962 8.67825 13.7544 8.73828C13.6558 8.32758 13.8499 7.90504 14.3037 7.58976C14.5162 7.44216 14.7227 7.45556 14.8748 7.49441C14.8592 7.48098 14.8429 7.46825 14.8259 7.45553C14.3716 7.12838 13.8315 7.74572 13.6265 8.01583Z" fill="#B51C3D"/>
<path d="M15.86 7.81674H10.9253C10.8002 7.81674 10.6987 7.92238 10.6987 8.05269V10.0075C10.6987 10.1378 10.8002 10.2434 10.9253 10.2434H15.86C15.9852 10.2434 16.0866 10.1378 16.0866 10.0075V8.05269C16.0866 7.92238 15.9852 7.81674 15.86 7.81674Z" fill="#F7BE61"/>
<path d="M15.7212 7.93683H11.1025C10.9722 7.93683 10.8662 8.04721 10.8662 8.18289V9.86775C10.8662 10.0034 10.9722 10.1138 11.1025 10.1138H15.7212C15.8514 10.1138 15.9574 10.0034 15.9574 9.86775V8.18289C15.9574 8.04721 15.8514 7.93683 15.7212 7.93683ZM15.8821 9.86775C15.8821 9.96017 15.8099 10.0353 15.7212 10.0353H11.1025C11.0138 10.0353 10.9416 9.96017 10.9416 9.86775V8.18289C10.9416 8.09047 11.0138 8.01531 11.1025 8.01531H15.7212C15.8099 8.01531 15.8821 8.09047 15.8821 8.18289V9.86775Z" fill="#FFE1B6"/>
<path d="M15.9203 8.4657H10.9136V8.5059H15.9203V8.4657Z" fill="#FFE1B6"/>
<path d="M15.9203 8.85257H10.9136V8.89277H15.9203V8.85257Z" fill="#FFE1B6"/>
<path d="M15.9203 9.23895H10.9136V9.27915H15.9203V9.23895Z" fill="#FFE1B6"/>
<path d="M15.9203 9.62582H10.9136V9.66602H15.9203V9.62582Z" fill="#FFE1B6"/>
<path d="M16.1551 8.51739C16.1336 8.26715 16.1188 8.02178 16.1307 7.83344C16.1898 6.89074 16.8579 6.50644 16.8579 6.50644C16.8579 6.50644 17.4542 6.85073 17.5672 7.17998C17.8897 8.12183 17.9881 9.3229 17.9302 10.3375C17.9056 10.7668 17.5214 10.9944 17.3729 10.9677C17.4148 10.4924 17.2483 10.1358 16.9666 9.90811C16.965 9.88794 16.963 9.8684 16.9613 9.84831C16.9317 9.50262 16.9015 9.15905 16.8671 8.83291C16.8671 8.83291 16.8131 8.82431 16.73 8.80133C16.6882 8.78991 16.6394 8.7749 16.5863 8.75552C16.5331 8.73629 16.4759 8.71259 16.4174 8.68399C16.3587 8.65537 16.2991 8.62176 16.2416 8.58235C16.2127 8.56258 16.1842 8.54163 16.1567 8.51895C16.1561 8.51848 16.1556 8.51786 16.1551 8.51739Z" fill="#90A4AE"/>
<path d="M16.1548 8.51691C16.1554 8.51738 16.1559 8.51799 16.1564 8.51846C16.1839 8.54114 16.2123 8.5621 16.2412 8.58186C16.2988 8.62126 16.3584 8.65488 16.4169 8.68348C16.4754 8.7121 16.5328 8.73579 16.5858 8.75502C16.639 8.77441 16.6879 8.78941 16.7297 8.80082C16.8128 8.82382 16.8666 8.8324 16.8666 8.8324C16.9011 9.15855 16.9314 9.50213 16.9609 9.84782C16.9627 9.86791 16.9645 9.88745 16.9662 9.90762C16.7825 9.75917 16.5505 9.66513 16.294 9.63057C16.294 9.63057 16.202 9.06498 16.1548 8.51691Z" fill="#AB5139"/>
<path d="M16.5092 9.49464C16.5092 9.49464 14.8256 9.54459 13.9231 9.21602C13.6389 9.11252 13.4938 8.67295 13.2671 8.46641C13.1876 8.39417 12.9931 8.3006 12.9931 8.3006L13.0856 8.80154C13.0856 8.80154 12.7608 8.82468 12.1045 8.51543C11.9618 8.44828 11.9462 8.66514 12.0281 8.7319C12.0596 8.75737 12.128 8.80592 12.128 8.80592C12.0617 8.83993 12.0495 8.98885 12.119 9.05116C12.1553 9.08375 12.2271 9.13652 12.2271 9.13652C12.2271 9.13652 12.1973 9.23275 12.2655 9.29068C12.5034 9.49322 12.6784 9.59329 12.912 9.68616C13.1331 9.77403 13.3838 9.7526 13.6079 9.83157C14.4706 10.1355 16.0828 10.7395 17.0825 10.9473C17.2454 10.9812 17.4772 10.9959 17.573 10.8545C17.8161 10.4957 17.3692 9.55436 17.3692 9.55436L16.5092 9.49464Z" fill="#FB947C"/>
<path d="M12.1308 8.79664C12.1317 8.7967 12.1325 8.79695 12.1333 8.79726C12.3288 8.87254 12.5238 8.94798 12.724 8.98042C12.7289 8.98121 12.7323 8.98604 12.7316 8.99121C12.7308 8.99629 12.7261 8.9998 12.7212 8.99903C12.5185 8.96619 12.3225 8.89013 12.127 8.81476C12.1172 8.81101 12.1204 8.79577 12.1308 8.79664Z" fill="#AD6655"/>
<path d="M12.2294 9.12729C12.2308 9.12729 12.2322 9.12768 12.2335 9.12838C12.377 9.20647 12.5173 9.2705 12.6475 9.29255C12.6524 9.29333 12.6558 9.29825 12.655 9.30334C12.6541 9.3085 12.6495 9.31193 12.6446 9.31099C12.5109 9.28848 12.3693 9.22344 12.2251 9.14503C12.2167 9.14049 12.2199 9.12712 12.2294 9.12729Z" fill="#AD6655"/>
<path d="M10.4064 8.10749C10.3386 8.18977 10.3878 8.36853 10.4577 8.39675C10.4047 8.47593 10.4297 8.64878 10.5188 8.70423C10.4647 8.73759 10.4833 8.94334 10.6048 8.99017C10.5526 9.022 10.5388 9.1924 10.605 9.24917C10.6945 9.32616 10.8212 9.41765 10.9534 9.41059C11.0239 9.40668 11.0046 9.22596 10.9551 9.16808C10.919 9.12609 10.8694 9.08651 10.8694 9.08651C10.9605 9.03015 10.9423 8.83 10.8328 8.75971C10.8968 8.66142 10.8734 8.47435 10.78 8.43362C10.8481 8.38583 10.871 8.16352 10.7238 8.13531C10.6552 8.12213 10.4584 8.04424 10.4064 8.10749Z" fill="#FB947C"/>
<path d="M10.7836 8.42253C10.7931 8.42575 10.791 8.44337 10.7809 8.44452C10.6788 8.45969 10.5664 8.43155 10.4558 8.40749C10.4507 8.40685 10.4473 8.40084 10.4485 8.39442C10.4499 8.38801 10.4553 8.38391 10.4603 8.38546C10.5711 8.40968 10.682 8.43668 10.78 8.42222C10.7811 8.42207 10.7823 8.4222 10.7836 8.42253Z" fill="#AD6655"/>
<path d="M10.836 8.74905C10.8466 8.75256 10.8426 8.77228 10.8316 8.77097C10.7342 8.76789 10.6262 8.74356 10.5161 8.71521C10.511 8.71439 10.5077 8.70821 10.5091 8.70182C10.5105 8.69551 10.5159 8.69161 10.5209 8.69335C10.6306 8.72155 10.738 8.74556 10.8334 8.74853C10.8343 8.74863 10.8351 8.74878 10.836 8.74905Z" fill="#AD6655"/>
<path d="M10.6072 8.97898C10.6076 8.97917 10.6082 8.97937 10.6087 8.97955C10.6995 9.0277 10.7869 9.05887 10.8711 9.07538C10.8764 9.07584 10.88 9.08179 10.8788 9.08824C10.8776 9.09468 10.8722 9.09905 10.8671 9.09739C10.7814 9.08059 10.6926 9.04894 10.6005 9.00027C10.5893 8.99569 10.596 8.9745 10.6072 8.97898Z" fill="#AD6655"/>
<path d="M16.411 9.50833C16.411 9.50833 16.2098 8.31125 16.2474 7.71071C16.3067 6.76801 16.8569 6.50644 16.8569 6.50644C16.8569 6.50644 17.453 6.85071 17.566 7.17998C17.8886 8.12183 17.9871 9.32297 17.9291 10.3374C17.9045 10.7668 17.5202 10.9944 17.3717 10.9677C17.4411 10.1825 17.0614 9.59588 16.411 9.50833Z" fill="white"/>
<path d="M14.4781 5.01722C14.4781 5.05036 14.5068 5.43506 14.4589 5.96578C14.3968 6.65708 15.5646 6.28021 15.5547 5.89942C15.5355 5.17638 15.631 4.34726 15.631 4.34726L14.4781 5.01722Z" fill="#FB947C"/>
<path d="M15.6185 4.47855C15.6069 4.59612 15.5904 4.78139 15.5764 5.00864C15.3816 5.46307 15.0534 5.89154 14.4658 5.8967C14.4911 5.57869 14.4895 5.32141 14.485 5.16836L15.6185 4.47855Z" fill="#C1725F"/>
<path d="M14.0136 3.92936C14.0136 3.92936 13.9754 4.75472 14.1407 5.13222C14.2792 5.44906 14.5847 5.61065 14.8608 5.56116C15.24 5.49316 15.4827 5.11691 15.5804 4.65567C15.5927 4.59853 15.6333 4.73815 15.727 4.71204C15.9602 4.647 16.0529 4.03865 15.8226 3.97244C15.6782 3.93091 15.6028 4.15153 15.6028 4.15153C15.6028 4.15153 15.5882 3.89675 15.5105 3.81655C15.3799 3.68147 15.2082 3.59314 15.1251 3.42192C15.0723 3.31319 15.1038 3.1681 14.9977 3.11673C14.5974 2.92279 14.0136 3.92936 14.0136 3.92936Z" fill="#FB947C"/>
<path d="M15.7817 4.12606C15.8045 4.1323 15.8228 4.14567 15.8358 4.16428C15.8614 4.20149 15.8673 4.25402 15.8622 4.30796C15.8571 4.36182 15.8403 4.41787 15.8151 4.46283C15.7899 4.50761 15.7555 4.54335 15.7119 4.54818C15.7018 4.54999 15.6923 4.54248 15.6912 4.5317C15.6901 4.52107 15.6978 4.51153 15.7081 4.51098C15.7341 4.50808 15.7619 4.48315 15.7839 4.44375C15.8061 4.40443 15.8217 4.3526 15.8264 4.30422C15.8309 4.25575 15.8238 4.21126 15.8064 4.18617C15.7891 4.16107 15.7635 4.14965 15.7123 4.16616C15.7028 4.1692 15.6926 4.16358 15.6898 4.15372C15.6869 4.14371 15.6922 4.13332 15.7016 4.13027C15.7319 4.1205 15.759 4.1198 15.7817 4.12606Z" fill="#A66252"/>
</g>
<defs>
<clipPath id="clip0_442_714">
<rect width="18" height="13" fill="white"/>
</clipPath>
</defs>
</svg>
