<svg width="2500" height="741" viewBox="0 0 2500 741" fill="none" xmlns="http://www.w3.org/2000/svg">
<path d="M2407.41 740.741H92.5926C41.6667 740.741 0 699.074 0 648.148V92.5926C0 41.6667 41.6667 0 92.5926 0H2407.41C2458.33 0 2500 41.6667 2500 92.5926V648.148C2500 699.074 2458.33 740.741 2407.41 740.741Z" fill="white"/>
<path d="M2407.41 14.8148C2428.04 14.8148 2447.82 23.0092 2462.4 37.5954C2476.99 52.1816 2485.19 71.9646 2485.19 92.5926V648.148C2485.19 668.776 2476.99 688.559 2462.4 703.145C2447.82 717.732 2428.04 725.926 2407.41 725.926H92.5926C71.9646 725.926 52.1816 717.732 37.5954 703.145C23.0092 688.559 14.8148 668.776 14.8148 648.148V92.5926C14.8148 71.9646 23.0092 52.1816 37.5954 37.5954C52.1816 23.0092 71.9646 14.8148 92.5926 14.8148H2407.41ZM2407.41 0H92.5926C41.6667 0 0 41.6667 0 92.5926V648.148C0 699.074 41.6667 740.741 92.5926 740.741H2407.41C2458.33 740.741 2500 699.074 2500 648.148V92.5926C2500 41.6667 2458.33 0 2407.41 0Z" fill="#A6A6A6"/>
<path d="M878.148 189.63C878.148 205.185 873.518 217.593 864.259 226.667C853.889 237.593 840.37 243.148 823.518 243.148C807.407 243.148 793.704 237.593 782.592 226.482C771.481 215.37 765.926 201.482 765.926 185.185C765.926 168.889 771.481 155 782.592 143.889C793.704 132.778 807.407 127.037 823.518 127.037C831.667 127.037 839.444 128.519 846.667 131.296C853.889 134.259 859.815 138.333 864.444 143.519L854.259 153.704C850.926 149.63 846.481 146.296 840.926 144.074C835.437 141.686 829.504 140.487 823.518 140.556C811.481 140.556 801.111 144.815 792.778 153.148C784.444 161.667 780.37 172.222 780.37 185C780.37 197.778 784.444 208.333 792.778 216.852C801.111 225.185 811.296 229.444 823.518 229.444C834.629 229.444 843.704 226.296 851.111 220.185C858.518 214.074 862.778 205.37 863.889 194.63H823.518V181.296H877.407C877.778 184.259 878.148 187.037 878.148 189.63ZM963.518 129.63V143.333H912.963V178.519H958.518V191.852H912.963V227.037H963.518V240.741H898.704V129.63H963.518ZM1023.7 143.333V240.741H1009.44V143.333H978.333V129.63H1054.63V143.333H1023.7ZM1124.26 240.741H1110V129.63H1124.26V240.741ZM1187.59 143.333V240.741H1173.33V143.333H1142.22V129.63H1218.52V143.333H1187.59ZM1379.44 185.185C1379.44 201.667 1373.89 215.37 1362.96 226.482C1351.85 237.593 1338.33 243.148 1322.22 243.148C1306.11 243.148 1292.59 237.593 1281.48 226.482C1270.56 215.37 1265 201.667 1265 185.185C1265 168.704 1270.56 155 1281.48 143.889C1292.41 132.778 1305.93 127.037 1322.22 127.037C1338.33 127.037 1351.85 132.593 1362.96 143.889C1374.07 155.185 1379.44 168.889 1379.44 185.185ZM1279.81 185.185C1279.81 197.963 1283.89 208.704 1291.85 217.037C1300 225.37 1310.19 229.63 1322.22 229.63C1334.26 229.63 1344.44 225.37 1352.41 217.037C1360.56 208.704 1364.63 198.148 1364.63 185.185C1364.63 172.222 1360.56 161.667 1352.41 153.333C1344.26 145 1334.26 140.741 1322.22 140.741C1310.19 140.741 1300 145 1291.85 153.333C1283.89 161.667 1279.81 172.407 1279.81 185.185ZM1413.7 240.741H1399.44V129.63H1416.85L1470.93 216.111H1471.48L1470.93 194.63V129.63H1485.18V240.741H1470.37L1413.89 150.185H1413.33L1413.89 171.667V240.741H1413.7Z" fill="#111111" stroke="#111111" stroke-width="3" stroke-miterlimit="10"/>
<mask id="path-4-inside-1_1436_1120" fill="white">
<path d="M1261.85 402.777C1218.33 402.777 1182.78 435.925 1182.78 481.481C1182.78 526.851 1218.33 560.185 1261.85 560.185C1305.37 560.185 1340.93 526.851 1340.93 481.481C1340.93 435.925 1305.37 402.777 1261.85 402.777ZM1261.85 529.259C1237.96 529.259 1217.41 509.629 1217.41 481.481C1217.41 453.148 1237.96 433.703 1261.85 433.703C1285.74 433.703 1306.3 453.148 1306.3 481.481C1306.3 509.629 1285.56 529.259 1261.85 529.259ZM1089.26 402.777C1045.74 402.777 1010.19 435.925 1010.19 481.481C1010.19 526.851 1045.74 560.185 1089.26 560.185C1132.78 560.185 1168.33 526.851 1168.33 481.481C1168.33 435.925 1132.78 402.777 1089.26 402.777ZM1089.26 529.259C1065.37 529.259 1044.81 509.629 1044.81 481.481C1044.81 453.148 1065.37 433.703 1089.26 433.703C1113.15 433.703 1133.7 453.148 1133.7 481.481C1133.7 509.629 1113.15 529.259 1089.26 529.259ZM884.074 427.037V460.37H964.074C961.667 479.074 955.37 492.962 945.926 502.407C934.259 514.074 916.111 526.851 884.259 526.851C835 526.851 796.481 487.222 796.481 437.962C796.481 388.703 835 349.074 884.259 349.074C910.741 349.074 930.185 359.444 944.444 372.962L967.963 349.444C947.963 330.37 921.481 315.74 884.074 315.74C816.667 315.74 760 370.555 760 438.148C760 505.555 816.667 560.555 884.074 560.555C920.556 560.555 947.963 548.703 969.444 526.296C991.481 504.259 998.333 473.148 998.333 448.148C998.333 440.37 997.778 433.148 996.481 427.222H884.074V427.037ZM1723.15 452.962C1716.67 435.37 1696.67 402.777 1655.74 402.777C1615.19 402.777 1581.48 434.629 1581.48 481.481C1581.48 525.555 1614.81 560.185 1659.63 560.185C1695.74 560.185 1716.67 538.148 1725.19 525.37L1698.33 507.407C1689.44 520.555 1677.22 529.259 1659.63 529.259C1642.04 529.259 1629.44 521.296 1621.48 505.37L1726.85 461.851L1723.15 452.962ZM1615.74 479.259C1614.81 448.888 1639.26 433.333 1656.85 433.333C1670.56 433.333 1682.22 440.185 1686.11 449.999L1615.74 479.259ZM1530.19 555.555H1564.81V324.074H1530.19V555.555ZM1473.52 420.37H1472.22C1464.44 411.111 1449.63 402.777 1430.74 402.777C1391.3 402.777 1355.19 437.407 1355.19 481.851C1355.19 525.925 1391.3 560.37 1430.74 560.37C1449.44 560.37 1464.44 552.037 1472.22 542.407H1473.33V553.703C1473.33 583.888 1457.22 600 1431.3 600C1410.19 600 1397.04 584.814 1391.67 572.037L1361.48 584.629C1370.19 605.555 1393.15 631.111 1431.3 631.111C1471.85 631.111 1506.11 607.222 1506.11 549.074V407.592H1473.33V420.37H1473.52ZM1433.7 529.259C1409.81 529.259 1389.81 509.259 1389.81 481.851C1389.81 454.074 1409.81 433.888 1433.7 433.888C1457.22 433.888 1475.74 454.259 1475.74 481.851C1475.93 509.259 1457.41 529.259 1433.7 529.259ZM1885.37 324.074H1802.59V555.555H1837.22V467.777H1885.56C1923.89 467.777 1961.48 439.999 1961.48 395.925C1961.3 351.851 1923.52 324.074 1885.37 324.074ZM1886.11 435.555H1837.04V356.111H1886.11C1912.04 356.111 1926.67 377.592 1926.67 395.74C1926.67 413.888 1912.04 435.555 1886.11 435.555ZM2099.81 402.407C2074.81 402.407 2048.89 413.518 2038.15 437.777L2068.89 450.555C2075.37 437.777 2087.59 433.518 2100.37 433.518C2118.15 433.518 2136.48 444.259 2136.67 463.333V465.74C2130.37 462.222 2117.04 456.851 2100.56 456.851C2067.41 456.851 2033.89 474.999 2033.89 508.888C2033.89 539.814 2060.93 559.814 2091.3 559.814C2114.44 559.814 2127.41 549.444 2135.37 537.222H2136.48V555H2169.81V466.296C2170 425.37 2139.26 402.407 2099.81 402.407ZM2095.56 529.259C2084.26 529.259 2068.52 523.518 2068.52 509.629C2068.52 491.851 2088.15 484.999 2105.19 484.999C2120.37 484.999 2127.59 488.333 2136.67 492.777C2135.38 502.801 2130.51 512.019 2122.95 518.726C2115.39 525.433 2105.66 529.175 2095.56 529.259ZM2291.48 407.407L2251.85 507.777H2250.74L2209.63 407.407H2172.41L2234.07 547.777L2198.89 625.74H2235L2330 407.407H2291.48ZM1980.37 555.555H2015V324.074H1980.37V555.555Z"/>
</mask>
<path d="M1261.85 402.777C1218.33 402.777 1182.78 435.925 1182.78 481.481C1182.78 526.851 1218.33 560.185 1261.85 560.185C1305.37 560.185 1340.93 526.851 1340.93 481.481C1340.93 435.925 1305.37 402.777 1261.85 402.777ZM1261.85 529.259C1237.96 529.259 1217.41 509.629 1217.41 481.481C1217.41 453.148 1237.96 433.703 1261.85 433.703C1285.74 433.703 1306.3 453.148 1306.3 481.481C1306.3 509.629 1285.56 529.259 1261.85 529.259ZM1089.26 402.777C1045.74 402.777 1010.19 435.925 1010.19 481.481C1010.19 526.851 1045.74 560.185 1089.26 560.185C1132.78 560.185 1168.33 526.851 1168.33 481.481C1168.33 435.925 1132.78 402.777 1089.26 402.777ZM1089.26 529.259C1065.37 529.259 1044.81 509.629 1044.81 481.481C1044.81 453.148 1065.37 433.703 1089.26 433.703C1113.15 433.703 1133.7 453.148 1133.7 481.481C1133.7 509.629 1113.15 529.259 1089.26 529.259ZM884.074 427.037V460.37H964.074C961.667 479.074 955.37 492.962 945.926 502.407C934.259 514.074 916.111 526.851 884.259 526.851C835 526.851 796.481 487.222 796.481 437.962C796.481 388.703 835 349.074 884.259 349.074C910.741 349.074 930.185 359.444 944.444 372.962L967.963 349.444C947.963 330.37 921.481 315.74 884.074 315.74C816.667 315.74 760 370.555 760 438.148C760 505.555 816.667 560.555 884.074 560.555C920.556 560.555 947.963 548.703 969.444 526.296C991.481 504.259 998.333 473.148 998.333 448.148C998.333 440.37 997.778 433.148 996.481 427.222H884.074V427.037ZM1723.15 452.962C1716.67 435.37 1696.67 402.777 1655.74 402.777C1615.19 402.777 1581.48 434.629 1581.48 481.481C1581.48 525.555 1614.81 560.185 1659.63 560.185C1695.74 560.185 1716.67 538.148 1725.19 525.37L1698.33 507.407C1689.44 520.555 1677.22 529.259 1659.63 529.259C1642.04 529.259 1629.44 521.296 1621.48 505.37L1726.85 461.851L1723.15 452.962ZM1615.74 479.259C1614.81 448.888 1639.26 433.333 1656.85 433.333C1670.56 433.333 1682.22 440.185 1686.11 449.999L1615.74 479.259ZM1530.19 555.555H1564.81V324.074H1530.19V555.555ZM1473.52 420.37H1472.22C1464.44 411.111 1449.63 402.777 1430.74 402.777C1391.3 402.777 1355.19 437.407 1355.19 481.851C1355.19 525.925 1391.3 560.37 1430.74 560.37C1449.44 560.37 1464.44 552.037 1472.22 542.407H1473.33V553.703C1473.33 583.888 1457.22 600 1431.3 600C1410.19 600 1397.04 584.814 1391.67 572.037L1361.48 584.629C1370.19 605.555 1393.15 631.111 1431.3 631.111C1471.85 631.111 1506.11 607.222 1506.11 549.074V407.592H1473.33V420.37H1473.52ZM1433.7 529.259C1409.81 529.259 1389.81 509.259 1389.81 481.851C1389.81 454.074 1409.81 433.888 1433.7 433.888C1457.22 433.888 1475.74 454.259 1475.74 481.851C1475.93 509.259 1457.41 529.259 1433.7 529.259ZM1885.37 324.074H1802.59V555.555H1837.22V467.777H1885.56C1923.89 467.777 1961.48 439.999 1961.48 395.925C1961.3 351.851 1923.52 324.074 1885.37 324.074ZM1886.11 435.555H1837.04V356.111H1886.11C1912.04 356.111 1926.67 377.592 1926.67 395.74C1926.67 413.888 1912.04 435.555 1886.11 435.555ZM2099.81 402.407C2074.81 402.407 2048.89 413.518 2038.15 437.777L2068.89 450.555C2075.37 437.777 2087.59 433.518 2100.37 433.518C2118.15 433.518 2136.48 444.259 2136.67 463.333V465.74C2130.37 462.222 2117.04 456.851 2100.56 456.851C2067.41 456.851 2033.89 474.999 2033.89 508.888C2033.89 539.814 2060.93 559.814 2091.3 559.814C2114.44 559.814 2127.41 549.444 2135.37 537.222H2136.48V555H2169.81V466.296C2170 425.37 2139.26 402.407 2099.81 402.407ZM2095.56 529.259C2084.26 529.259 2068.52 523.518 2068.52 509.629C2068.52 491.851 2088.15 484.999 2105.19 484.999C2120.37 484.999 2127.59 488.333 2136.67 492.777C2135.38 502.801 2130.51 512.019 2122.95 518.726C2115.39 525.433 2105.66 529.175 2095.56 529.259ZM2291.48 407.407L2251.85 507.777H2250.74L2209.63 407.407H2172.41L2234.07 547.777L2198.89 625.74H2235L2330 407.407H2291.48ZM1980.37 555.555H2015V324.074H1980.37V555.555Z" fill="#111111" stroke="#111111" stroke-width="30" mask="url(#path-4-inside-1_1436_1120)"/>
<path d="M383.704 359.631L186.481 568.89V569.075C188.615 577.002 192.552 584.329 197.985 590.483C203.418 596.638 210.199 601.454 217.8 604.555C225.401 607.656 233.616 608.959 241.803 608.362C249.991 607.765 257.93 605.284 265 601.112L265.556 600.742L487.407 472.779L383.704 359.631Z" fill="#EA4335"/>
<path d="M583.148 324.073L582.963 323.888L487.222 268.332L379.259 364.443L487.593 472.776L582.963 417.777C591.399 413.21 598.447 406.453 603.364 398.217C608.282 389.982 610.888 380.572 610.907 370.98C610.926 361.387 608.357 351.968 603.472 343.712C598.587 335.457 591.566 328.673 583.148 324.073Z" fill="#FBBC04"/>
<path d="M186.481 171.852C185.37 176.296 184.629 180.74 184.629 185.555V555.37C184.629 560.185 185.185 564.629 186.481 569.074L390.37 365.185L186.481 171.852Z" fill="#4285F4"/>
<path d="M385.185 370.369L487.222 268.332L265.556 139.813C258.469 135.576 250.499 133.036 242.268 132.393C234.036 131.75 225.768 133.02 218.11 136.105C210.451 139.19 203.611 144.005 198.124 150.175C192.637 156.344 188.652 163.699 186.481 171.665L385.185 370.369Z" fill="#34A853"/>
</svg>
