<svg width="114" height="80" viewBox="0 0 114 80" fill="none" xmlns="http://www.w3.org/2000/svg">
<path d="M102.182 35.8484C102.222 35.3108 102.248 34.7697 102.248 34.222C102.248 22.1755 92.5111 12.4099 80.4992 12.4099C77.224 12.4099 74.1198 13.1382 71.3351 14.4398C69.3806 15.3535 67.0762 14.6263 65.9572 12.7775C61.3208 5.11835 52.9292 0 43.3421 0C28.7366 0 16.8967 11.8741 16.8967 26.5216C16.8967 27.7347 16.9796 28.9281 17.1385 30.0973C17.401 32.0277 16.3124 33.883 14.5009 34.5867C6.41343 37.7282 0.665695 45.5778 0.604959 54.7835C0.525272 66.8614 10.6553 76.743 22.6987 76.743H91.3235C103.265 76.743 113.223 67.2254 113.394 55.2509C113.513 46.9045 108.955 39.6176 102.182 35.8484Z" fill="#B2EBF2"/>
<path d="M102.182 35.8484C102.222 35.3108 102.248 34.7697 102.248 34.222C102.248 22.1755 92.5111 12.4099 80.4992 12.4099C77.224 12.4099 74.1198 13.1382 71.3351 14.4398C69.3806 15.3535 67.0762 14.6263 65.9572 12.7775C61.3208 5.11835 52.9292 0 43.3421 0C28.7366 0 16.8967 11.8741 16.8967 26.5216C16.8967 27.7347 16.9796 28.9281 17.1385 30.0973C17.401 32.0277 16.3124 33.883 14.5009 34.5867C6.41343 37.7282 0.665695 45.5778 0.604959 54.7835C0.525272 66.8614 10.6553 76.743 22.6987 76.743H91.3235C103.265 76.743 113.223 67.2254 113.394 55.2509C113.513 46.9045 108.955 39.6176 102.182 35.8484Z" fill="#B2EBF2"/>
<mask id="mask0_442_543" style="mask-type:luminance" maskUnits="userSpaceOnUse" x="54" y="19" width="35" height="20">
<path d="M81.2716 24.685C81.1487 24.685 81.0268 24.6881 80.9057 24.6943C79.2841 21.5742 76.0314 19.4425 72.2802 19.4425C68.5323 19.4425 65.2819 21.5705 63.6589 24.6864C63.6401 24.6863 63.6216 24.685 63.6028 24.685C60.8702 24.685 58.5217 26.3286 57.4826 28.6832C55.4708 29.4307 54.0366 31.372 54.0366 33.6496C54.0366 36.574 56.4004 38.9446 59.3163 38.9446H81.2716C85.1975 38.9446 88.3807 35.7524 88.3807 31.8148C88.3807 27.8771 85.1975 24.685 81.2716 24.685Z" fill="white"/>
</mask>
<g mask="url(#mask0_442_543)">
<path d="M88.3807 19.4425H54.0366V38.9446H88.3807V19.4425Z" fill="white"/>
</g>
<mask id="mask1_442_543" style="mask-type:luminance" maskUnits="userSpaceOnUse" x="35" y="54" width="35" height="20">
<path d="M42.1981 59.5993C42.3208 59.5993 42.4427 59.6025 42.5639 59.6086C44.1854 56.4885 47.4382 54.3568 51.1893 54.3568C54.9373 54.3568 58.1877 56.485 59.8106 59.6008C59.8294 59.6006 59.8479 59.5994 59.8668 59.5994C62.5994 59.5994 64.9479 61.2431 65.9869 63.5977C67.9988 64.3451 69.4329 66.2864 69.4329 68.564C69.4329 71.4883 67.0691 73.8589 64.1532 73.8589H42.1981C38.2718 73.8589 35.0889 70.6668 35.0889 66.7292C35.0889 62.7915 38.2718 59.5993 42.1981 59.5993Z" fill="white"/>
</mask>
<g mask="url(#mask1_442_543)">
<path d="M69.4329 54.3568H35.0889V73.8589H69.4329V54.3568Z" fill="white"/>
</g>
<path d="M35.2884 32.236C35.2884 30.7792 35.1073 29.3652 34.7706 28.0131C39.6668 24.942 42.9258 19.4896 42.9258 13.2711C42.9258 8.30189 40.8428 3.82338 37.5089 0.655975C25.7115 3.32086 16.8967 13.8858 16.8967 26.5223C16.8967 27.7354 16.9796 28.9288 17.1385 30.098C17.401 32.0284 16.3124 33.8837 14.5009 34.5873C6.41344 37.7288 0.665701 45.5785 0.604959 54.7842C0.599984 55.5363 0.634849 56.2799 0.707066 57.0132C1.98032 57.4783 3.35466 57.7325 4.7883 57.7325C10.0701 57.7325 14.547 54.2869 16.1133 49.5157C16.7201 49.5801 17.3358 49.6149 17.9595 49.6149C27.5299 49.6149 35.2884 41.8341 35.2884 32.236Z" fill="#0B6B39"/>
<path d="M32.0018 28.8499C21.1435 30.7252 28.1158 45.8472 19.0889 50.8595C18.8059 51.0166 42.9024 53.0432 42.9024 53.0432C42.9024 53.0432 44.5328 26.6857 32.0018 28.8499Z" fill="#3F3838"/>
<path d="M51.7776 56.7961L45.4092 60.1666L48.0307 65.6287L57.1414 67.2404C56.9809 66.868 54.2606 61.5955 51.7776 56.7961Z" fill="#F6AD9F"/>
<path d="M17.7164 63.4715L30.015 47.6279L27.0585 46.8754C24.7396 46.2853 22.2832 46.9965 20.6367 48.735L10.1543 61.1014C9.76933 61.5556 9.50548 62.0693 9.35547 62.6047L17.7164 63.4715Z" fill="#F6AD9F"/>
<path d="M45.4282 62.111L53.1715 57.9812L49.0113 49.8881C47.7184 47.3728 45.1325 45.7898 42.3075 45.784L40.5054 45.7802L41.4119 56.7183L45.4282 62.111Z" fill="white"/>
<path d="M24.0819 46.6837C24.0819 46.6837 30.5143 46.0171 33.1785 45.8476C35.8426 45.678 41.3117 45.7802 41.3117 45.7802L44.7307 52.9856L44.5465 72.5552L22.3394 71.2783L24.0819 46.6837Z" fill="white"/>
<mask id="mask2_442_543" style="mask-type:luminance" maskUnits="userSpaceOnUse" x="22" y="45" width="23" height="28">
<path d="M24.0892 46.6866C24.0892 46.6866 30.5217 46.0201 33.1858 45.8505C35.85 45.6809 41.319 45.7832 41.319 45.7832L44.738 52.9885L44.5538 72.5582L22.3467 71.2812L24.0892 46.6866Z" fill="white"/>
</mask>
<g mask="url(#mask2_442_543)">
<path d="M29.5263 44.9126L29.8012 50.804C29.9144 53.2281 31.9355 55.1207 34.3584 55.0717C36.7296 55.0236 38.6509 53.1302 38.7367 50.7569L38.9709 44.2779L41.0073 44.5533C41.0073 44.5533 40.6305 51.1167 42.1163 55.6146C43.3792 59.4379 45.2364 61.2553 45.2364 61.2553L47.2645 74.9809L19.9482 72.531L22.1872 60.0535C22.1872 60.0535 25.3963 57.6634 26.7848 53.5184C27.8619 50.3029 27.5145 45.2066 27.5145 45.2066L29.5263 44.9126Z" fill="#0B6B39"/>
</g>
<path d="M35.3325 60.1079C35.6693 56.9899 33.7495 55.8729 32.0933 57.8245C31.7142 55.4954 31.0408 53.8681 30.0378 54.1214C28.6154 54.4805 28.3103 57.0979 28.4532 60.1012C28.3326 60.176 28.2107 60.2541 28.0826 60.3507C25.6953 62.15 29.4183 70.929 31.7754 70.9847C32.8548 71.0101 34.9151 63.9706 35.3325 60.1079Z" fill="#C5E1A5"/>
<path d="M31.8032 70.6978C31.756 70.6978 31.7154 70.6619 31.711 70.6139L30.3388 56.8669C30.3338 56.8161 30.3707 56.7703 30.4216 56.7653C30.4811 56.7558 30.5181 56.7976 30.5232 56.8488L31.8954 70.5957C31.9004 70.6466 31.8634 70.6924 31.8126 70.6975C31.8089 70.6978 31.8061 70.6978 31.8032 70.6978Z" fill="#09100F"/>
<path d="M31.1567 64.2044C31.1459 64.2044 31.1349 64.2025 31.1247 64.1986L28.3667 63.186C28.3188 63.1686 28.2934 63.1152 28.3116 63.0669C28.3296 63.0182 28.3855 62.9931 28.4306 63.0116L31.1066 63.994L33.2197 59.127C33.2399 59.0804 33.2936 59.0582 33.3415 59.0786C33.3887 59.0992 33.4105 59.1538 33.3894 59.201L31.2416 64.1485C31.2271 64.1834 31.1929 64.2044 31.1567 64.2044Z" fill="#09100F"/>
<path d="M37.9426 55.6678C40.5623 51.9494 43.7223 52.5773 43.6563 56.2927C46.2998 54.1208 48.5915 52.9958 49.441 54.2349C50.6456 55.9919 48.4709 59.1345 45.4389 62.267C45.4986 62.4645 45.5564 62.6665 45.6034 62.8949C46.4791 67.1465 34.0173 73.129 31.3976 70.9258C30.198 69.9169 34.6974 60.2741 37.9426 55.6678Z" fill="#81C784"/>
<path d="M32.4358 69.683C32.411 69.683 32.3864 69.6733 32.3683 69.6536C32.3326 69.6162 32.3348 69.5573 32.3719 69.522L44.8897 57.7551C44.9274 57.7195 44.9862 57.7221 45.021 57.7595C45.0565 57.7969 45.0543 57.8557 45.0173 57.891L32.4996 69.6579C32.4815 69.6746 32.4582 69.683 32.4358 69.683Z" fill="#09100F"/>
<path d="M37.0021 65.3931C36.9723 65.3931 36.944 65.3786 36.9265 65.354C36.9077 65.3277 36.904 65.2935 36.9164 65.2638L39.7434 58.5983C39.7637 58.5507 39.8211 58.5293 39.8654 58.5489C39.9124 58.5692 39.9343 58.6237 39.9147 58.6709L37.1464 65.1969L42.4435 64.8384C42.4979 64.8358 42.5393 64.874 42.5429 64.9248C42.5458 64.9761 42.5073 65.0203 42.4566 65.0236L37.0085 65.3927C37.0064 65.3931 37.0042 65.3931 37.0021 65.3931Z" fill="#09100F"/>
<path d="M33.722 68.474C33.6944 68.474 33.6683 68.4618 33.6501 68.4403C33.6305 68.4164 33.624 68.3847 33.6327 68.355L34.9258 63.9314C34.9395 63.882 34.9933 63.8554 35.0411 63.8682C35.0904 63.8827 35.1188 63.9343 35.1043 63.9837L33.8496 68.2757L35.6558 68.1057C35.7023 68.0992 35.7516 68.1384 35.7566 68.1896C35.7616 68.2409 35.724 68.2863 35.6732 68.291L33.7307 68.4737C33.7278 68.4741 33.7249 68.474 33.722 68.474Z" fill="#09100F"/>
<path d="M22.974 70.9051C22.9694 71.2342 22.6995 71.4974 22.3707 71.4929C22.0421 71.4884 21.7793 71.218 21.7837 70.8889C21.7883 70.5598 22.0583 70.2967 22.3869 70.3011C22.7156 70.3056 22.9785 70.5761 22.974 70.9051Z" fill="#282984"/>
<path d="M17.8958 70.8365C17.8913 71.1656 17.6212 71.4287 17.2925 71.4241C16.9639 71.4197 16.7012 71.1493 16.7056 70.8203C16.7101 70.4912 16.9802 70.228 17.3089 70.2324C17.6375 70.2369 17.9002 70.5074 17.8958 70.8365Z" fill="#FEFEFB"/>
<path d="M33.1684 71.043C33.1638 71.372 32.8938 71.6353 32.5651 71.6308C32.2365 71.6262 31.9737 71.3559 31.9781 71.0268C31.9827 70.6977 32.2526 70.4345 32.5813 70.439C32.91 70.4435 33.1728 70.7139 33.1684 71.043Z" fill="#282984"/>
<path d="M28.0901 70.9744C28.0856 71.3035 27.8155 71.5666 27.4869 71.5621C27.1583 71.5577 26.8955 71.2872 26.9 70.9581C26.9044 70.6291 27.1745 70.3659 27.5031 70.3703C27.8318 70.3749 28.0946 70.6453 28.0901 70.9744Z" fill="#FEFEFB"/>
<path d="M43.3626 71.1831C43.3581 71.5122 43.088 71.7754 42.7594 71.7709C42.4308 71.7664 42.168 71.496 42.1724 71.1669C42.177 70.8378 42.447 70.5746 42.7756 70.5791C43.1043 70.5836 43.3671 70.854 43.3626 71.1831Z" fill="#282984"/>
<path d="M38.2844 71.1148C38.28 71.4439 38.0098 71.707 37.6812 71.7025C37.3526 71.6981 37.0899 71.4277 37.0943 71.0986C37.0987 70.7695 37.3689 70.5063 37.6975 70.5108C38.0261 70.5153 38.2889 70.7857 38.2844 71.1148Z" fill="#FEFEFB"/>
<path d="M48.4792 71.2522C48.4748 71.5813 48.2047 71.8444 47.876 71.8399C47.5474 71.8354 47.2846 71.565 47.2891 71.2359C47.2936 70.9068 47.5637 70.6437 47.8923 70.6481C48.2209 70.6526 48.4837 70.9231 48.4792 71.2522Z" fill="#FEFEFB"/>
<path d="M28.0301 75.1146C28.0256 75.4436 27.7555 75.7067 27.4268 75.7023C27.0982 75.6978 26.8355 75.4274 26.8399 75.0983C26.8444 74.7691 27.1145 74.5061 27.4432 74.5106C27.7718 74.515 28.0345 74.7855 28.0301 75.1146Z" fill="#282984"/>
<path d="M22.952 75.0461C22.9475 75.3753 22.6775 75.6383 22.3488 75.6339C22.0201 75.6294 21.7573 75.3589 21.7618 75.0298C21.7664 74.7008 22.0363 74.4377 22.365 74.4421C22.6937 74.4466 22.9565 74.717 22.952 75.0461Z" fill="#FEFEFB"/>
<path d="M38.2303 75.2547C38.2258 75.5838 37.9557 75.8469 37.627 75.8424C37.2984 75.8379 37.0357 75.5675 37.0401 75.2384C37.0446 74.9093 37.3147 74.6462 37.6433 74.6506C37.972 74.6552 38.2347 74.9256 38.2303 75.2547Z" fill="#282984"/>
<path d="M33.1522 75.1831C33.1477 75.5123 32.8776 75.7754 32.549 75.7709C32.2203 75.7665 31.9575 75.496 31.962 75.1669C31.9665 74.8379 32.2365 74.5746 32.5652 74.5792C32.8938 74.5837 33.1567 74.854 33.1522 75.1831Z" fill="#FEFEFB"/>
<path d="M48.4192 75.3921C48.4147 75.7212 48.1446 75.9844 47.816 75.9799C47.4874 75.9754 47.2246 75.705 47.2291 75.3759C47.2335 75.0468 47.5036 74.7836 47.8323 74.7882C48.1609 74.7926 48.4236 75.063 48.4192 75.3921Z" fill="#282984"/>
<path d="M43.3411 75.3239C43.3366 75.653 43.0666 75.9161 42.7379 75.9117C42.4093 75.9071 42.1465 75.6367 42.1509 75.3076C42.1554 74.9785 42.4255 74.7154 42.7541 74.7199C43.0828 74.7243 43.3456 74.9948 43.3411 75.3239Z" fill="#FEFEFB"/>
<path d="M19.0135 61.4031L18.3564 77.5247L21.2944 77.6451L21.9516 61.5235L19.0135 61.4031Z" fill="#D3394F"/>
<path d="M46.1865 62.5164L45.5293 78.6379L48.4674 78.7583L49.1246 62.6368L46.1865 62.5164Z" fill="#6D4C41"/>
<path d="M17.3189 70.0302L17.0156 77.4695L49.8084 78.8139L50.1117 71.3746L17.3189 70.0302Z" fill="#A1887F"/>
<path d="M17.6734 61.3465L17.3701 68.7858L50.163 70.1302L50.4663 62.6909L17.6734 61.3465Z" fill="#A1887F"/>
<path d="M20.3764 64.1073C19.9931 64.0916 19.6696 64.39 19.6539 64.7738C19.6383 65.1577 19.9363 65.4817 20.3196 65.4974C20.703 65.5131 21.0264 65.2147 21.0421 64.8307C21.0578 64.4469 20.7598 64.1229 20.3764 64.1073Z" fill="#6D4C41"/>
<path d="M19.9825 73.7702C19.9716 73.7699 19.9607 73.7695 19.9505 73.7695C19.5304 73.7695 19.1806 74.1027 19.1632 74.5263C19.1458 74.9608 19.4846 75.3284 19.9185 75.3464C19.9295 75.3467 19.9403 75.347 19.9512 75.347C20.1494 75.347 20.3372 75.2736 20.4839 75.1382C20.6391 74.9953 20.7284 74.801 20.7371 74.5903C20.7458 74.3799 20.6718 74.179 20.5295 74.0239C20.3866 73.8691 20.1929 73.779 19.9825 73.7702Z" fill="#6D4C41"/>
<path d="M47.7025 75.1372C47.5595 74.9825 47.3658 74.8924 47.1553 74.8837C46.7185 74.8655 46.3536 75.2045 46.3361 75.639C46.3274 75.8496 46.4014 76.051 46.5437 76.206C46.6865 76.3608 46.8804 76.4509 47.0908 76.4597C47.1017 76.4601 47.1126 76.4604 47.1234 76.4604C47.3223 76.4604 47.5101 76.387 47.6568 76.2515C47.812 76.1088 47.9013 75.9144 47.91 75.7036C47.9187 75.4933 47.8447 75.292 47.7025 75.1372Z" fill="#6D4C41"/>
<path d="M37.2545 64.9118C37.4033 64.8912 37.5471 64.8278 37.667 64.7197C37.9857 64.4326 38.0121 63.9407 37.7249 63.6211C36.486 62.2418 35.0939 60.9961 33.5863 59.9194L33.4837 59.8457C33.1348 59.5971 32.6501 59.677 32.3999 60.0277C32.1512 60.3777 32.2327 60.8633 32.5817 61.1129L32.6843 61.1861C34.0995 62.1969 35.4064 63.3665 36.57 64.6617C36.7492 64.8612 37.008 64.946 37.2545 64.9118Z" fill="#F6AD9F"/>
<path d="M57.0302 66.9786L49.804 64.9634L43.8161 64.5132C42.548 64.2579 40.2831 64.0158 39.0463 63.779C35.3899 63.0788 30.7491 61.3864 30.6974 61.3625C30.309 61.1811 29.8463 61.3481 29.6646 61.737C29.5626 61.9548 29.5735 62.1941 29.6681 62.3961C29.3659 62.3843 29.0713 62.5513 28.9347 62.8438C28.7897 63.1533 28.8689 63.5071 29.1018 63.7316C28.7318 63.6026 28.3158 63.7682 28.1449 64.1328C27.9627 64.5218 28.1304 64.9846 28.5188 65.167C28.5559 65.1845 28.7449 65.2715 29.0351 65.3974C28.9026 65.4793 28.7926 65.6005 28.7274 65.7553C28.5603 66.151 28.7455 66.6071 29.1407 66.7744C29.3412 66.8594 33.5773 68.6315 37.3777 68.8734L37.3771 68.8766L53.8561 71.5404C55.1467 71.749 56.4282 71.1193 57.0532 69.9696C57.561 69.0352 57.5522 67.905 57.0302 66.9786Z" fill="#F6AD9F"/>
<path d="M32.6467 63.42C32.6373 63.42 32.6286 63.4185 32.6192 63.4156L29.6404 62.4834C29.5911 62.4681 29.5642 62.4163 29.5794 62.3672C29.5948 62.3178 29.6455 62.2916 29.6956 62.3061L32.6743 63.2384C32.7237 63.2536 32.7504 63.3056 32.7352 63.3546C32.7229 63.3946 32.6866 63.42 32.6467 63.42Z" fill="#FB928C"/>
<path d="M31.9422 64.6848C31.9335 64.6848 31.924 64.6837 31.9154 64.6807L29.0746 63.8186C29.0252 63.8038 28.9977 63.7518 29.0122 63.7028C29.0274 63.6537 29.081 63.6271 29.1283 63.6406L31.9692 64.5027C32.0185 64.5176 32.046 64.5696 32.0308 64.6186C32.0191 64.6589 31.9821 64.6848 31.9422 64.6848Z" fill="#FB928C"/>
<path d="M31.5946 66.1437C31.5873 66.1437 31.5794 66.1426 31.5714 66.1408L29.0078 65.4854C28.9584 65.4727 28.928 65.4221 28.941 65.3724C28.9533 65.3226 28.9991 65.2929 29.0542 65.3052L31.6178 65.9606C31.6672 65.9733 31.6976 66.0238 31.6846 66.0736C31.6737 66.1157 31.636 66.1437 31.5946 66.1437Z" fill="#FB928C"/>
<path d="M34.1449 75.4584L29.9328 73.2513C29.699 73.128 29.4356 73.1303 29.2108 73.2276L17.582 63.453L9.38887 62.6061C9.17384 64.0382 9.73932 65.5456 11.0106 66.4551L26.7014 77.68L29.9966 79.9036C30.3128 80.0698 30.6863 80.0138 30.9398 79.7916C31.0158 79.7248 31.0807 79.6435 31.1302 79.5488C31.2337 79.3509 31.2488 79.1311 31.1931 78.9321C31.495 79.0605 31.8357 79.0061 32.0725 78.798C32.1489 78.7314 32.2138 78.6502 32.2631 78.5554C32.3598 78.3706 32.3775 78.1672 32.3345 77.979C32.6264 78.0863 32.9483 78.0304 33.1748 77.8319C33.2511 77.7651 33.3157 77.6839 33.3659 77.5887C33.4694 77.39 33.4843 77.1698 33.4278 76.9702C33.7303 77.0995 34.072 77.0446 34.3091 76.8368C34.3852 76.7699 34.45 76.6886 34.5001 76.5936C34.7151 76.1819 34.5563 75.6735 34.1449 75.4584Z" fill="#F6AD9F"/>
<path d="M33.4282 77.0647C33.4129 77.0647 33.3969 77.061 33.3824 77.0523L29.9821 75.1283C29.9372 75.1028 29.922 75.0461 29.9473 75.0015C29.9713 74.9575 30.0278 74.9415 30.0736 74.9662L33.4738 76.891C33.5189 76.9157 33.5341 76.9724 33.5086 77.0174C33.492 77.0479 33.4607 77.0647 33.4282 77.0647Z" fill="#FB928C"/>
<path d="M32.3294 78.0728C32.3128 78.0728 32.2961 78.0684 32.2816 78.059L29.3965 76.3063C29.3522 76.2799 29.3384 76.2225 29.3653 76.1785C29.3914 76.1342 29.4501 76.1204 29.4923 76.1473L32.3774 77.9005C32.4215 77.9267 32.4354 77.9841 32.4086 78.0277C32.3911 78.0568 32.3606 78.0728 32.3294 78.0728Z" fill="#FB928C"/>
<path d="M31.1878 79.0259C31.1704 79.0259 31.1529 79.0208 31.1377 79.0114L28.8121 77.5212C28.7685 77.4935 28.7561 77.4361 28.7837 77.3925C28.8121 77.3489 28.8708 77.3387 28.9122 77.3642L31.2378 78.8545C31.2814 78.882 31.2937 78.9394 31.2662 78.983C31.2479 79.0106 31.2182 79.0259 31.1878 79.0259Z" fill="#FB928C"/>
<path d="M32.2606 72.2103C31.1181 70.9631 27.0854 72.5407 27.0854 72.5407C27.0854 72.5407 29.2544 73.9244 29.979 73.8637C31.1466 73.7657 31.701 73.5027 32.2797 73.8817C33.0437 74.3821 33.9462 74.8144 34.3885 74.0133C34.5857 73.6563 32.5359 72.5109 32.2606 72.2103Z" fill="#F6AD9F"/>
<path d="M26.6137 46.4305L25.4881 46.4966C23.1577 46.6337 20.932 47.5133 19.1359 49.0067L14.0303 53.2523L21.1315 60.22L24.5916 56.3745L26.6137 46.4305Z" fill="white"/>
<path d="M35.8417 39.1231L31.6656 38.9664L30.1895 47.2633C30.0985 48.1622 31.5909 49.05 33.5227 49.2461C35.4546 49.4421 37.0944 48.8724 37.1856 47.9733C37.1986 47.8448 37.1758 47.7168 37.1274 47.5907L35.8417 39.1231Z" fill="#F6AD9F"/>
<mask id="mask3_442_543" style="mask-type:luminance" maskUnits="userSpaceOnUse" x="30" y="38" width="8" height="12">
<path d="M35.8291 39.1231L31.6529 38.9664L30.1768 47.2633C30.0858 48.1622 31.5782 49.05 33.5101 49.2461C35.442 49.4421 37.0817 48.8724 37.1729 47.9733C37.1859 47.8448 37.1631 47.7168 37.1148 47.5907L35.8291 39.1231Z" fill="white"/>
</mask>
<g mask="url(#mask3_442_543)">
<path d="M37.0469 42.96C37.0469 42.96 33.7152 42.9169 32.2229 41.5543C30.7307 40.1916 37.7645 39.0691 37.7645 39.0691L37.0469 42.96Z" fill="#FB928C"/>
</g>
<path d="M37.224 34.4782C37.1951 32.4773 35.5517 30.8787 33.5535 30.9077C31.5553 30.9366 29.9588 32.5822 29.9878 34.5831L30.0013 35.5188C29.8793 35.5087 29.7536 35.5163 29.6279 35.544C28.9516 35.6933 28.5242 36.3632 28.6732 37.0403C28.8126 37.674 29.4075 38.0893 30.0375 38.0178L30.0412 38.2775C30.0701 40.2784 31.7135 41.8771 33.7117 41.848C35.7099 41.819 37.3063 40.1735 37.2774 38.1726L37.224 34.4782Z" fill="#F6AD9F"/>
<path d="M29.5806 34.0087L37.6348 34.2221C37.6348 34.2221 38.0022 28.7227 33.9588 29.0611C30.3258 29.3651 30.1768 30.9464 29.5806 34.0087Z" fill="#3F3838"/>
<path d="M89.6232 28.4629C92.4567 28.7916 93.5057 34.1748 93.2358 37.0223C92.6903 42.7912 87.0492 50.835 87.0492 50.835L84.0239 49.4764C84.0239 49.4764 86.0534 40.8495 85.6046 32.9464C85.4314 29.9046 87.6888 28.2384 89.6232 28.4629Z" fill="#6F3A33"/>
<path d="M85.8062 30.2518C85.9407 29.637 86.8205 29.1599 87.432 29.3008C88.5365 29.5551 89.4759 31.2571 89.1931 32.3577C89.0409 32.949 88.294 33.1159 87.7027 32.9691C86.6328 32.7033 85.5701 31.3315 85.8062 30.2518Z" fill="#FABB61"/>
<path d="M84.123 42.1062C84.123 42.1062 86.6334 41.2066 87.7307 39.5762C89.4483 37.0261 89.7617 33.3982 88.1142 30.8017C86.8275 28.7755 83.8531 27.7746 81.4724 28.0482C79.6488 28.2573 78.7585 29.9054 78.7585 29.9054C78.7585 29.9054 75.9577 30.0103 75.0865 31.8909C73.2478 35.8581 76.7148 38.2636 76.7148 38.2636L84.123 42.1062Z" fill="#8B4840"/>
<path d="M84.0258 44.9564C86.2284 45.9856 89.1521 47.3766 90.753 48.5258L89.9401 64.9652L67.542 60.9346C67.542 60.9346 69.941 50.1981 76.2574 45.8991C76.9317 45.4402 78.8766 45.1745 78.8766 45.1745L84.0258 44.9564Z" fill="white"/>
<path d="M92.7576 76.7434C91.7683 72.362 91.4275 65.505 90.7951 59.757C90.7951 59.757 86.4695 59.0928 85.738 55.9981C85.1506 53.5152 88.7576 47.3331 88.7632 47.3482L86.8667 46.3065C86.8667 46.3065 84.6842 49.5325 83.4346 54.7753C82.828 57.3213 75.2988 56.7133 75.2612 54.096C75.1818 48.5954 78.8738 45.1744 78.8738 45.1744L76.5256 45.7178C76.5256 45.7178 73.4244 47.9331 71.7389 60.2551C71.0393 65.3696 72.8277 71.2208 73.4241 76.7434H92.7576Z" fill="#C75E42"/>
<path d="M64.0373 55.9464V53.1058L60.709 54.863L64.0373 55.9464Z" fill="#D89030"/>
<path d="M82.7002 55.9464L85.9381 54.863L82.7002 53.1058V55.9464Z" fill="#D89030"/>
<path d="M64.0381 63.8061C64.0381 64.3667 64.4912 64.8212 65.0502 64.8212H81.7082C82.2673 64.8212 82.7201 64.3667 82.7201 63.8061V53.1058H64.0381V63.8061Z" fill="#EAA23B"/>
<path d="M62.1299 50.5085C60.7317 50.0411 60.0992 48.4386 59.4999 48.6055C58.9007 48.7724 59.1671 49.4068 59.1671 49.4068C59.1671 49.4068 56.9033 48.305 56.4372 49.4068C55.9712 50.5085 56.5704 51.1429 58.2682 51.677C59.966 52.2113 59.5332 53.7804 61.4308 53.5467C63.3283 53.313 63.3283 52.1778 63.3283 52.1778C63.3283 52.1778 63.5281 50.9759 62.1299 50.5085Z" fill="#094F37"/>
<path d="M63.0268 47.6039C61.781 47.6954 61.9774 49.5386 62.0211 49.8598C62.0261 49.8897 62.0281 49.9076 62.0281 49.9076C62.0281 49.9076 62.0253 49.8905 62.0211 49.8598C61.9849 49.6434 61.7897 48.7909 61.0294 49.4068C60.1638 50.1079 62.4609 52.6453 62.4609 52.6453C63.0268 53.3798 63.8591 52.3448 63.8591 52.3448C63.8591 52.3448 63.6593 50.9092 63.7925 49.9076C63.9257 48.9059 64.3918 47.5038 63.0268 47.6039Z" fill="#166843"/>
<path d="M62.022 49.8599C62.0263 49.8911 62.0291 49.9085 62.0291 49.9085C62.0291 49.9085 62.027 49.8904 62.022 49.8599Z" fill="#166843"/>
<path d="M61.8642 52.7459C61.8642 52.7459 58.7681 50.9096 57.836 52.846C57.836 52.846 57.5364 54.2483 60.3328 53.6807C60.3328 53.6807 59.4006 54.1147 60.0332 54.2149C60.6657 54.315 61.5978 53.6807 61.9307 53.7809C62.2636 53.881 62.763 53.2466 61.8642 52.7459Z" fill="#799922"/>
<path d="M61.9126 52.8545V52.858C61.8479 52.9365 61.7866 53.0184 61.7254 53.1037C60.1498 55.3869 63.1207 58.1035 64.4207 59.1342C64.9175 59.5266 65.5267 59.7724 66.1595 59.7553C67.0069 59.7349 67.6092 59.2877 67.8985 58.4926C68.1606 57.7758 68.164 56.7759 67.8509 55.5507C67.0818 52.5201 63.7604 50.6294 61.9126 52.8545Z" fill="#CE293D"/>
<path d="M62.3707 55.7302C61.6605 54.6618 61.7254 53.6234 61.9126 52.8589C61.8479 52.9374 61.7866 53.0193 61.7254 53.1046C60.1498 55.3878 63.1207 58.1044 64.4207 59.1352C64.9175 59.5276 65.5267 59.7733 66.1595 59.7562C67.0069 59.7358 67.6092 59.2887 67.8985 58.4935C65.9214 58.9883 63.8877 58.0121 62.3707 55.7302Z" fill="#BF213C"/>
<path d="M78.9611 47.3118C78.6011 46.8033 78.0966 47.27 78.0966 47.27C78.0966 47.27 78.3609 44.7604 77.1694 44.695C75.9778 44.6296 75.5864 45.4103 75.6621 47.1932C75.7379 48.9762 74.1192 49.1009 74.9829 50.8114C75.8466 52.522 76.9112 52.1363 76.9112 52.1363C76.9112 52.1363 78.1063 51.9166 78.0697 50.4389C78.0332 48.9613 79.3213 47.8203 78.9611 47.3118Z" fill="#166843"/>
<path d="M78.6361 50.1174C78.6107 50.1312 78.5967 50.1394 78.5967 50.1394C78.5967 50.1394 78.6115 50.1318 78.6361 50.1174Z" fill="#094F37"/>
<path d="M78.6429 50.1174C78.6165 50.1324 78.6004 50.1403 78.6004 50.1403C78.6004 50.1403 78.6154 50.1318 78.6429 50.1174C78.8336 50.0097 79.5666 49.5361 78.7308 49.0282C77.7793 48.4498 76.1799 51.4785 76.1799 51.4785C75.6833 52.2617 76.9365 52.6952 76.9365 52.6952C76.9365 52.6952 78.2151 52.0192 79.1997 51.8046C80.1842 51.59 81.6578 51.5533 81.1001 50.2999C80.5912 49.1559 78.9293 49.967 78.6429 50.1174Z" fill="#094F37"/>
<path d="M74.4184 47.1816C74.4184 47.1816 73.0016 47.3753 74.4837 49.8202C74.4837 49.8202 73.76 49.0883 73.8809 49.719C74.0019 50.3497 74.9134 51.0134 74.9326 51.3615C74.9517 51.7095 75.7162 51.9651 75.8806 50.9472C75.8806 50.9472 76.551 47.403 74.4184 47.1816Z" fill="#094F37"/>
<path d="M75.7983 51.0323L75.7951 51.0335C75.6995 50.9992 75.6019 50.9692 75.5011 50.9404C72.8246 50.2298 71.2859 53.9548 70.7609 55.5311C70.5615 56.133 70.538 56.7911 70.769 57.3823C71.076 58.1746 71.6999 58.591 72.5439 58.5937C73.3051 58.5974 74.244 58.261 75.2868 57.5495C77.8678 55.7947 78.5128 52.0195 75.7983 51.0323Z" fill="#A5193B"/>
<path d="M70.7609 55.5311C70.5615 56.133 70.538 56.7911 70.769 57.3823C71.076 58.1746 71.6999 58.591 72.5439 58.5937C71.4083 56.8968 71.633 54.6469 73.2579 52.4409C74.0186 51.4081 75.0145 51.1166 75.7951 51.0336C75.6995 50.9992 75.6019 50.9692 75.5011 50.9404C72.8246 50.2298 71.2859 53.9548 70.7609 55.5311Z" fill="#96153A"/>
<path d="M73.3 48.5606C72.9399 48.0521 72.4354 48.5188 72.4354 48.5188C72.4354 48.5188 72.6998 46.0092 71.5082 45.9438C70.3166 45.8785 69.9253 46.6591 70.001 48.4421C70.0767 50.225 68.4581 50.3497 69.3218 52.0603C70.1855 53.7708 71.2501 53.3852 71.2501 53.3852C71.2501 53.3852 72.4451 53.1654 72.4086 51.6878C72.372 50.2101 73.6601 49.0692 73.3 48.5606Z" fill="#799922"/>
<path d="M72.9764 51.366C72.95 51.381 72.9339 51.389 72.9339 51.389C72.9339 51.389 72.949 51.3805 72.9764 51.366C73.1671 51.2583 73.9001 50.7848 73.0643 50.2768C72.1128 49.6985 70.5134 52.7271 70.5134 52.7271C70.0168 53.5104 71.2701 53.9439 71.2701 53.9439C71.2701 53.9439 72.5486 53.2679 73.5332 53.0533C74.5178 52.8387 75.9912 52.802 75.4336 51.5485C74.9247 50.4045 73.2628 51.2157 72.9764 51.366Z" fill="#094F37"/>
<path d="M72.97 51.3662C72.9446 51.3801 72.9307 51.3883 72.9307 51.3883C72.9307 51.3883 72.9455 51.3806 72.97 51.3662Z" fill="#094F37"/>
<path d="M68.7573 48.4304C68.7573 48.4304 67.3404 48.6241 68.8226 51.069C68.8226 51.069 68.0989 50.3372 68.2199 50.9678C68.3407 51.5985 69.2523 52.2623 69.2714 52.6103C69.2906 52.9584 70.0551 53.2139 70.2194 52.196C70.2194 52.196 70.89 48.6519 68.7573 48.4304Z" fill="#166843"/>
<path d="M70.1323 52.2812L70.1291 52.2823C70.0335 52.248 69.9359 52.218 69.8351 52.1892C67.1586 51.4785 65.6199 55.2036 65.0948 56.7799C64.8955 57.3819 64.872 58.0399 65.103 58.6311C65.41 59.4235 66.0339 59.8397 66.8779 59.8425C67.6391 59.8463 68.578 59.5098 69.6208 58.7982C72.2018 57.0434 72.8468 53.2683 70.1323 52.2812Z" fill="#CE293D"/>
<path d="M65.0948 56.7799C64.8955 57.3819 64.872 58.0399 65.103 58.6311C65.41 59.4235 66.0339 59.8397 66.8779 59.8425C65.7423 58.1456 65.967 55.8957 67.5919 53.6896C68.3526 52.6569 69.3485 52.3655 70.1291 52.2823C70.0335 52.248 69.9359 52.218 69.8351 52.1892C67.1586 51.4785 65.6199 55.2036 65.0948 56.7799Z" fill="#B51C3D"/>
<path d="M84.2519 50.5377C84.2519 50.5377 85.35 48.2671 84.2511 47.8C83.1522 47.3329 82.5197 47.9341 81.988 49.637C81.4555 51.3398 79.891 50.9063 80.1247 52.8093C80.3583 54.7122 81.4901 54.7119 81.4901 54.7119C81.4901 54.7119 82.6889 54.9118 83.1546 53.5094C83.6203 52.1071 85.2179 51.4722 85.0511 50.8713C84.8843 50.2704 84.2519 50.5377 84.2519 50.5377Z" fill="#166843"/>
<path d="M83.7998 53.4028C83.77 53.4078 83.7523 53.4098 83.7523 53.4098C83.7523 53.4098 83.7692 53.407 83.7998 53.4028C84.0158 53.3665 84.8657 53.1705 84.2518 52.4081C83.5525 51.5403 81.0228 53.8448 81.0228 53.8448C80.2906 54.4125 81.3225 55.2469 81.3225 55.2469C81.3225 55.2469 82.7541 55.0462 83.7531 55.1793C84.7521 55.3126 86.1499 55.7796 86.05 54.4107C85.9582 53.1613 84.1205 53.3589 83.7998 53.4028Z" fill="#799922"/>
<path d="M83.7999 53.4044C83.7684 53.4086 83.7515 53.4116 83.7515 53.4116C83.7515 53.4116 83.7693 53.4095 83.7999 53.4044Z" fill="#799922"/>
<path d="M80.8222 49.2036C80.8222 49.2036 79.4239 48.9035 79.9907 51.7078C79.9907 51.7078 79.5577 50.7732 79.458 51.4075C79.3583 52.0419 79.9911 52.9765 79.8914 53.3104C79.7916 53.6443 80.4243 54.1449 80.9234 53.2433C80.9234 53.2433 82.7534 50.1378 80.8222 49.2036Z" fill="#799922"/>
<path d="M80.8135 53.2966H80.8101C80.7318 53.2318 80.6502 53.1704 80.5651 53.1089C78.2879 51.5296 75.5801 54.5099 74.5528 55.8139C74.1615 56.3123 73.9168 56.9233 73.934 57.5581C73.9547 58.4078 74.4007 59.0118 75.1937 59.3016C75.9084 59.5642 76.9054 59.5673 78.1271 59.2529C81.1487 58.4806 83.0325 55.1491 80.8135 53.2966Z" fill="#CE293D"/>
<path d="M74.5528 55.8139C74.1615 56.3123 73.9168 56.9233 73.934 57.5581C73.9547 58.4078 74.4007 59.0118 75.1937 59.3016C74.6996 57.3189 75.6723 55.279 77.9473 53.7569C79.0124 53.0444 80.0478 53.1091 80.8101 53.2966C80.7318 53.2318 80.6502 53.1704 80.5651 53.1089C78.2879 51.5296 75.5801 54.5099 74.5528 55.8139Z" fill="#B51C3D"/>
<path d="M85.7488 54.8522H61.0113C60.384 54.8522 59.8755 55.3622 59.8755 55.9913V65.4285C59.8755 66.0576 60.384 66.5675 61.0113 66.5675H85.7488C86.3764 66.5675 86.8847 66.0576 86.8847 65.4285V55.9913C86.8847 55.3622 86.3764 54.8522 85.7488 54.8522Z" fill="#F7BE61"/>
<path d="M85.0521 55.4326H61.8988C61.2458 55.4326 60.7144 55.9655 60.7144 56.6205V64.7544C60.7144 65.4094 61.2458 65.9423 61.8988 65.9423H85.0521C85.7047 65.9423 86.2364 65.4094 86.2364 64.7544V56.6205C86.2364 55.9655 85.7047 55.4326 85.0521 55.4326ZM85.8586 64.7544C85.8586 65.2006 85.4968 65.5635 85.0521 65.5635H61.8988C61.454 65.5635 61.0921 65.2006 61.0921 64.7544V56.6205C61.0921 56.1743 61.454 55.8115 61.8988 55.8115H85.0521C85.4968 55.8115 85.8586 56.1743 85.8586 56.6205V64.7544Z" fill="#FFE1B6"/>
<path d="M86.0525 57.9857H60.9541V58.1798H86.0525V57.9857Z" fill="#FFE1B6"/>
<path d="M86.0525 59.8534H60.9541V60.0475H86.0525V59.8534Z" fill="#FFE1B6"/>
<path d="M86.0525 61.7184H60.9541V61.9124H86.0525V61.7184Z" fill="#FFE1B6"/>
<path d="M86.0525 63.5858H60.9541V63.7799H86.0525V63.5858Z" fill="#FFE1B6"/>
<path d="M87.2296 58.2346C87.1216 57.0265 87.0475 55.842 87.1071 54.9328C87.4036 50.3817 90.7527 48.5265 90.7527 48.5265C90.7527 48.5265 93.7417 50.1886 94.3081 51.7781C95.925 56.325 96.4181 62.1234 96.128 67.0212C96.0048 69.0939 94.0785 70.1929 93.334 70.0638C93.5443 67.7692 92.7097 66.0475 91.2973 64.9485C91.2893 64.8512 91.2796 64.7568 91.2708 64.6598C91.1225 62.991 90.9711 61.3323 90.7986 59.7578C90.7986 59.7578 90.5279 59.7163 90.1114 59.6054C89.902 59.5503 89.657 59.4778 89.3912 59.3842C89.1245 59.2914 88.8377 59.177 88.5444 59.0389C88.2504 58.9007 87.9515 58.7385 87.663 58.5482C87.518 58.4528 87.3754 58.3516 87.2377 58.2422C87.2344 58.2399 87.232 58.2369 87.2296 58.2346Z" fill="#90A4AE"/>
<path d="M87.2275 58.2327C87.2308 58.235 87.2332 58.2379 87.2356 58.2402C87.3734 58.3497 87.516 58.4509 87.661 58.5463C87.9494 58.7365 88.2483 58.8988 88.5416 59.0369C88.8348 59.175 89.1224 59.2894 89.3883 59.3822C89.655 59.4758 89.8999 59.5482 90.1094 59.6033C90.5259 59.7144 90.7958 59.7558 90.7958 59.7558C90.969 61.3303 91.1205 62.989 91.2687 64.6579C91.2776 64.7548 91.2864 64.8492 91.2953 64.9466C90.3744 64.2299 89.2111 63.7759 87.9252 63.6091C87.9252 63.6091 87.4644 60.8786 87.2275 58.2327Z" fill="#AB5139"/>
<path d="M89.006 62.9523C89.006 62.9523 80.5663 63.1934 76.0423 61.6072C74.6175 61.1075 73.8898 58.9855 72.7533 57.9883C72.3548 57.6396 71.3802 57.1879 71.3802 57.1879L71.8438 59.6062C71.8438 59.6062 70.2155 59.718 66.9254 58.225C66.21 57.9008 66.1321 58.9477 66.5426 59.27C66.7004 59.393 67.0435 59.6274 67.0435 59.6274C66.7109 59.7916 66.6499 60.5105 66.9984 60.8113C67.1801 60.9686 67.5403 61.2234 67.5403 61.2234C67.5403 61.2234 67.3909 61.688 67.7326 61.9676C68.9251 62.9454 69.8026 63.4285 70.9733 63.8769C72.0816 64.3011 73.3385 64.1976 74.4618 64.5788C78.7867 66.0461 86.8686 68.962 91.8798 69.9651C92.6967 70.1288 93.8585 70.1998 94.3387 69.5171C95.5576 67.7852 93.3171 63.2406 93.3171 63.2406L89.006 62.9523Z" fill="#FB947C"/>
<path d="M67.051 59.5835C67.0555 59.5838 67.0596 59.585 67.0634 59.5865C68.0438 59.9499 69.021 60.3141 70.025 60.4707C70.0494 60.4745 70.0664 60.4979 70.0626 60.5228C70.0589 60.5473 70.0352 60.5643 70.0107 60.5606C68.9947 60.402 68.0121 60.0348 67.0319 59.671C66.9829 59.6529 66.9991 59.5793 67.051 59.5835Z" fill="#AD6655"/>
<path d="M67.5442 61.1792C67.5513 61.1792 67.5581 61.181 67.5649 61.1844C68.284 61.5614 68.9873 61.8706 69.6402 61.977C69.6646 61.9808 69.6816 62.0045 69.6774 62.0291C69.6733 62.054 69.65 62.0705 69.6256 62.066C68.9553 61.9573 68.2456 61.6434 67.5223 61.2648C67.4802 61.2429 67.4964 61.1784 67.5442 61.1792Z" fill="#AD6655"/>
<path d="M58.4082 56.2558C58.0686 56.653 58.3151 57.516 58.6656 57.6522C58.4 58.0344 58.5252 58.8689 58.972 59.1366C58.7009 59.2976 58.7938 60.291 59.4032 60.517C59.1415 60.6707 59.072 61.4933 59.4038 61.7674C59.8529 62.1391 60.4876 62.5808 61.1503 62.5467C61.5038 62.5278 61.4073 61.6553 61.1592 61.3759C60.9782 61.1732 60.7292 60.9821 60.7292 60.9821C61.1858 60.7101 61.0946 59.7438 60.5461 59.4045C60.8668 58.9299 60.7496 58.0269 60.281 57.8302C60.6227 57.5995 60.7376 56.5263 59.9993 56.3901C59.6555 56.3265 58.6689 55.9504 58.4082 56.2558Z" fill="#FB947C"/>
<path d="M60.2976 57.7768C60.3453 57.7923 60.3351 57.8774 60.2842 57.883C59.7723 57.9562 59.2088 57.8204 58.6547 57.7042C58.6289 57.7011 58.6118 57.6721 58.618 57.6411C58.6249 57.6101 58.652 57.5903 58.677 57.5978C59.2325 57.7148 59.7886 57.8451 60.2796 57.7753C60.2854 57.7746 60.2914 57.7752 60.2976 57.7768Z" fill="#AD6655"/>
<path d="M60.5622 59.3521C60.6153 59.3691 60.5952 59.4643 60.5401 59.458C60.0516 59.4431 59.5104 59.3256 58.9586 59.1888C58.9329 59.1848 58.9163 59.155 58.9236 59.1241C58.9305 59.0937 58.9574 59.0748 58.9826 59.0832C59.5326 59.2194 60.071 59.3353 60.5489 59.3496C60.5539 59.3501 60.5579 59.3508 60.5622 59.3521Z" fill="#AD6655"/>
<path d="M59.4147 60.4633C59.4168 60.4641 59.4197 60.4651 59.4219 60.466C59.8771 60.6985 60.3153 60.8489 60.7376 60.9286C60.764 60.9308 60.782 60.9596 60.7761 60.9907C60.7703 61.0218 60.743 61.0429 60.7177 61.0349C60.2879 60.9538 59.8426 60.801 59.3809 60.566C59.3249 60.5439 59.3583 60.4416 59.4147 60.4633Z" fill="#AD6655"/>
<path d="M88.5131 63.0185C88.5131 63.0185 87.5044 57.2395 87.6929 54.3403C87.9902 49.7892 90.7488 48.5265 90.7488 48.5265C90.7488 48.5265 93.7369 50.1885 94.3033 51.7781C95.9203 56.325 96.4141 62.1237 96.1233 67.0212C96 69.0939 94.0737 70.1929 93.3293 70.0638C93.6773 66.2732 91.7736 63.4412 88.5131 63.0185Z" fill="white"/>
<path d="M78.8194 41.338C78.8194 41.498 78.9632 43.3552 78.7234 45.9173C78.4119 49.2547 84.2662 47.4353 84.2163 45.597C84.1204 42.1064 84.599 38.1037 84.599 38.1037L78.8194 41.338Z" fill="#FB947C"/>
<path d="M84.539 38.7368C84.481 39.3044 84.398 40.1988 84.3279 41.2959C83.3514 43.4897 81.7063 45.5582 78.7607 45.5831C78.8876 44.0479 78.8793 42.8058 78.8567 42.0669L84.539 38.7368Z" fill="#C1725F"/>
<path d="M76.4912 36.0855C76.4912 36.0855 76.3 40.0701 77.1287 41.8926C77.8231 43.4221 79.3542 44.2023 80.7383 43.9633C82.6395 43.6351 83.856 41.8186 84.3459 39.5919C84.4071 39.3161 84.6109 39.9901 85.0806 39.8641C86.2496 39.5501 86.7145 36.6132 85.56 36.2935C84.8357 36.0931 84.4579 37.1581 84.4579 37.1581C84.4579 37.1581 84.3845 35.9282 83.9954 35.541C83.3404 34.8889 82.48 34.4624 82.0635 33.6358C81.7984 33.1109 81.9563 32.4105 81.4246 32.1625C79.4182 31.2262 76.4912 36.0855 76.4912 36.0855Z" fill="#FB947C"/>
<path d="M85.3549 37.0356C85.4693 37.0657 85.5612 37.1303 85.6264 37.2201C85.7545 37.3997 85.7843 37.6534 85.7586 37.9138C85.7328 38.1738 85.649 38.4444 85.5225 38.6614C85.396 38.8776 85.2236 39.0501 85.0053 39.0735C84.9545 39.0822 84.907 39.0459 84.9013 38.9939C84.8957 38.9426 84.9344 38.8965 84.9859 38.8939C85.1165 38.8799 85.2558 38.7595 85.3662 38.5693C85.4774 38.3795 85.5555 38.1293 85.5789 37.8957C85.6015 37.6617 85.566 37.4469 85.479 37.3258C85.392 37.2046 85.2639 37.1495 85.0069 37.2292C84.9594 37.2439 84.9086 37.2167 84.8941 37.1691C84.8796 37.1208 84.9062 37.0707 84.9537 37.0559C85.1052 37.0088 85.2413 37.0054 85.3549 37.0356Z" fill="#A66252"/>
</svg>
